<svg width="48" height="48" viewBox="0 0 48 48" fill="none" xmlns="http://www.w3.org/2000/svg">
<path d="M40.6111 7.38929C31.4385 -1.78508 16.5639 -1.78508 7.39131 7.38929C-1.78128 16.5613 -1.78128 31.4348 7.39131 40.6068C16.5639 49.7787 31.4385 49.7787 40.6111 40.6068C49.7837 31.4348 49.7837 16.5613 40.6111 7.38929Z" fill="#203F5B"/>
<path d="M24.0013 39.7453C32.6988 39.7453 39.7496 32.695 39.7496 23.998C39.7496 15.3011 32.6988 8.25083 24.0013 8.25083C15.3037 8.25083 8.25298 15.3011 8.25298 23.998C8.25298 32.695 15.3037 39.7453 24.0013 39.7453Z" fill="#E1684F"/>
<path fill-rule="evenodd" clip-rule="evenodd" d="M24.3499 5.98573C24.3669 5.97847 24.3838 5.96637 24.4007 5.94943L24.4032 5.95185L24.6355 5.71711C24.6573 5.69533 24.6694 5.67355 24.6742 5.65419C24.6791 5.63483 24.6791 5.62031 24.6791 5.61305L24.6742 4.78781H24.984C25.0227 4.78781 25.0421 4.76845 25.0397 4.72973V4.34494C25.0397 4.30622 25.0203 4.28686 24.9816 4.28686L23.4569 4.29654L23.3988 4.23846C23.3891 4.23362 23.3843 4.22394 23.3818 4.20942V3.70363C23.3818 3.69637 23.3939 3.67943 23.3939 3.67943L23.4641 3.60683C23.4714 3.59957 23.4811 3.59473 23.4883 3.59473L24.1636 3.58989V3.91176C24.1636 3.95048 24.1805 3.96984 24.2144 3.96742H24.6234C24.6549 3.96742 24.6694 3.94806 24.667 3.90934V3.46647C24.667 3.45921 24.6645 3.44469 24.6597 3.42533C24.6549 3.40597 24.6403 3.38419 24.6186 3.36241L24.3838 3.13008C24.3596 3.1083 24.3378 3.0962 24.3209 3.09136C24.3039 3.08652 24.2894 3.08652 24.2749 3.08652L23.2269 3.09378C23.2148 3.09378 23.1955 3.0962 23.1737 3.10588C23.1519 3.11556 23.135 3.12524 23.1205 3.13976L22.8881 3.37451C22.8663 3.39629 22.8542 3.41807 22.8494 3.43743C22.8445 3.45679 22.8445 3.47857 22.8445 3.47857L22.8494 4.35462C22.8494 4.37883 22.8518 4.40061 22.8566 4.41513C22.8591 4.42965 22.8736 4.44659 22.8954 4.46595L23.0164 4.58695L22.8954 4.70795C22.8639 4.73699 22.8494 4.76845 22.8494 4.79507L22.8542 5.62273C22.8542 5.66145 22.8688 5.69533 22.9002 5.72679L23.135 5.95911C23.1519 5.97847 23.1689 5.99057 23.1858 5.99541C23.2027 6.00025 23.2269 6.00267 23.2269 6.00267L24.3088 5.99541C24.3185 5.99541 24.333 5.99299 24.3499 5.98573ZM23.4956 4.79507L24.1684 4.79023L24.1732 5.49204L23.4641 5.49688L23.406 5.4388C23.3964 5.43154 23.3915 5.42186 23.3891 5.40492V4.92575C23.3891 4.90881 23.4012 4.88703 23.4012 4.88703L23.4714 4.80717C23.4786 4.79991 23.4956 4.79507 23.4956 4.79507Z" fill="white"/>
<path d="M18.8873 6.66091C18.897 6.69963 18.9188 6.71415 18.9575 6.70447V6.70931L20.429 6.34146C20.4677 6.33178 20.4822 6.31 20.4725 6.27128L20.3806 5.89859C20.3709 5.85987 20.3491 5.84535 20.3104 5.85503L19.2697 6.11398L19.0978 5.4291L19.9207 5.2234C19.9328 5.21856 19.9449 5.2113 19.9546 5.19678C19.9619 5.18226 19.9667 5.16774 19.9619 5.1508L19.8699 4.77811C19.8651 4.76117 19.8554 4.74907 19.8409 4.74181C19.8239 4.73455 19.8118 4.73213 19.7973 4.73455L18.9744 4.94026L18.8026 4.25538L19.8433 3.99644C19.8602 3.9916 19.8723 3.98192 19.8796 3.9674C19.8868 3.95046 19.8893 3.93836 19.8868 3.92384L19.7949 3.55115C19.7852 3.51243 19.7634 3.49791 19.7247 3.50759L18.2532 3.87544C18.2145 3.88512 18.2 3.9069 18.2096 3.94562L18.8873 6.66091Z" fill="white"/>
<path fill-rule="evenodd" clip-rule="evenodd" d="M17.6555 7.12316C17.6749 7.13042 17.6918 7.13042 17.7063 7.12316L17.6991 7.11832L18.0669 6.96828C18.0887 6.9586 18.1032 6.94408 18.1032 6.92956C18.1032 6.91504 18.0887 6.89084 18.0887 6.89084L17.3046 6.0898L17.4401 5.76794C17.457 5.7268 17.457 5.68323 17.4377 5.63725L17.0359 4.65714C17.0311 4.64746 17.0262 4.63778 17.019 4.6281C17.002 4.6039 16.9803 4.58696 16.9512 4.57486L16.6463 4.44659C16.6293 4.43933 16.6124 4.43691 16.6003 4.43691C16.5882 4.43933 16.5761 4.44175 16.564 4.44175C16.5543 4.44417 16.5325 4.45143 16.5325 4.45143L15.3031 4.9548C15.2667 4.97174 15.2571 4.99594 15.2716 5.03224L16.3341 7.62169C16.351 7.65799 16.3752 7.66767 16.4115 7.65315L16.7673 7.50795C16.8036 7.49101 16.8133 7.46681 16.7987 7.43051L16.4139 6.49153L16.8471 6.31487L17.6143 7.09654C17.624 7.10864 17.6386 7.1159 17.6555 7.12316ZM16.8931 5.63725C16.898 5.64693 16.8931 5.66871 16.8931 5.66871V5.67113L16.8568 5.75826C16.852 5.76794 16.835 5.78004 16.835 5.78004L16.2252 6.03172L15.9057 5.25489L16.5156 5.0032C16.5204 5.00078 16.5301 5.00078 16.547 5.0032L16.639 5.03708C16.6463 5.04192 16.6535 5.05402 16.6535 5.05402L16.8931 5.63725Z" fill="white"/>
<path d="M15.0127 8.33312C15.032 8.367 15.0587 8.37426 15.0925 8.3549L15.429 8.16855C15.4628 8.14919 15.4701 8.12257 15.4507 8.08869L14.0906 5.64445C14.0712 5.61057 14.0446 5.60331 14.0107 5.62267L13.6743 5.80901C13.6404 5.82837 13.6332 5.85499 13.6525 5.88887L15.0127 8.33312Z" fill="white"/>
<path d="M13.7395 9.13422C13.7637 9.16568 13.7903 9.1681 13.8218 9.14632L14.1316 8.92125C14.163 8.89705 14.1679 8.87043 14.1437 8.83897L12.4979 6.57623C12.4737 6.54477 12.4471 6.53993 12.4156 6.56413L12.1058 6.7892C12.0744 6.8134 12.0695 6.84002 12.0937 6.87148L12.769 7.80078L12.0792 8.30172L11.404 7.37243C11.3798 7.34097 11.3532 7.33855 11.3217 7.36033L11.0119 7.58539C10.9805 7.60959 10.978 7.63621 10.9998 7.66767L12.6456 9.93041C12.6698 9.96187 12.6964 9.96429 12.7278 9.94251L13.0376 9.71745C13.0691 9.69325 13.0739 9.66663 13.0497 9.63517L12.3745 8.70587L13.0643 8.20492L13.7395 9.13422Z" fill="white"/>
<path d="M11.7212 10.821C11.7309 10.8016 11.7357 10.7822 11.7357 10.758L11.7309 10.7556V10.4217C11.7309 10.3781 11.7163 10.3418 11.6873 10.3128L11.0266 9.64967C11 9.62063 10.9637 9.60611 10.9177 9.60369H10.5861C10.5474 9.60369 10.5111 9.61821 10.4796 9.64967L9.87941 10.2474C9.86973 10.2571 9.84795 10.2619 9.84795 10.2619H9.74872C9.73662 10.2619 9.71968 10.2498 9.71968 10.2498L9.37843 9.90619C9.37117 9.89651 9.37117 9.87715 9.37117 9.87715V9.78035C9.37359 9.76825 9.38569 9.74889 9.38569 9.74889L9.90603 9.231L10.1335 9.45849C10.1602 9.48511 10.1892 9.48511 10.2158 9.45849L10.4893 9.18744C10.5159 9.16082 10.5159 9.13178 10.4893 9.10516L10.1795 8.79539C10.1674 8.7833 10.1553 8.77361 10.1408 8.76636C10.1287 8.75667 10.1045 8.75183 10.0706 8.74941H9.73904C9.71968 8.74941 9.70032 8.75426 9.68095 8.76394C9.65917 8.77361 9.63255 8.79539 9.63255 8.79539L8.86776 9.55529C8.84356 9.57949 8.83146 9.59643 8.82662 9.61095C8.82178 9.62547 8.81936 9.64241 8.81936 9.66177V9.99332C8.81936 10.0199 8.8242 10.0441 8.83388 10.0611C8.84356 10.078 8.86292 10.1022 8.86292 10.1022L9.52606 10.7677C9.53816 10.7798 9.55268 10.7895 9.56962 10.7992C9.58657 10.8089 9.60593 10.8113 9.63013 10.8113H9.96412C9.99074 10.8137 10.0125 10.8089 10.0295 10.7992C10.0464 10.7919 10.0633 10.7774 10.0633 10.7774L10.6805 10.1651C10.6878 10.1579 10.7095 10.153 10.7095 10.153H10.8039C10.816 10.153 10.833 10.1651 10.833 10.1651L11.1766 10.5112C11.1863 10.5209 11.1863 10.5402 11.1863 10.5402V10.637C11.1863 10.6491 11.1815 10.6612 11.1815 10.6612L10.6515 11.1888L10.4385 10.9759C10.4288 10.9662 10.4167 10.9589 10.3998 10.9589C10.3828 10.9589 10.3562 10.9759 10.3562 10.9759L10.0827 11.2469C10.0706 11.259 10.0658 11.2735 10.0658 11.2905C10.0682 11.305 10.0827 11.3292 10.0827 11.3292L10.3828 11.6317C10.3925 11.6414 10.4046 11.651 10.4191 11.6583C10.4336 11.668 10.4554 11.668 10.482 11.668H10.816C10.8402 11.668 10.8572 11.668 10.8717 11.6631C10.8862 11.6583 10.9032 11.6462 10.9249 11.6244L11.6897 10.8645L11.6926 10.8609C11.7018 10.8496 11.7125 10.8362 11.7212 10.821Z" fill="white"/>
<path d="M9.81394 12.8803C9.8333 12.8755 9.84782 12.8682 9.85751 12.8537L9.85509 12.8513L10.1189 12.4955C10.1358 12.4738 10.1383 12.4544 10.1261 12.4375C10.114 12.4205 10.0947 12.4084 10.0681 12.4036L8.26017 12.0454L7.85841 10.787C7.85115 10.7604 7.83663 10.7483 7.81485 10.7507C7.79307 10.7531 7.77371 10.7676 7.75676 10.7894L7.4494 11.2057C7.4373 11.2202 7.43488 11.2347 7.4373 11.2492C7.43972 11.2637 7.44456 11.2807 7.45182 11.3L7.88262 12.5294L7.01618 11.8881C6.98472 11.8639 6.9581 11.8688 6.93389 11.9002L6.70639 12.21C6.68219 12.2414 6.68703 12.2681 6.7185 12.2923L8.96687 13.9572C8.99833 13.9815 9.02495 13.9766 9.04916 13.9451L9.27666 13.6354C9.30086 13.6039 9.29602 13.5773 9.26455 13.5531L8.57964 13.0473L8.42958 12.5827L9.76312 12.8803C9.77764 12.8852 9.79458 12.8852 9.81394 12.8803Z" fill="white"/>
<path fill-rule="evenodd" clip-rule="evenodd" d="M8.3181 15.1044C8.33746 15.0996 8.34956 15.0875 8.35682 15.073L8.3544 15.0802L8.54076 14.7293C8.55286 14.7051 8.55528 14.6882 8.5456 14.6761C8.53592 14.664 8.52382 14.6543 8.5093 14.6543L7.39358 14.5406L7.29193 14.2066C7.27983 14.1655 7.25079 14.134 7.20723 14.1098L6.27061 13.6137C6.26092 13.6089 6.25124 13.604 6.23914 13.6016C6.2101 13.5919 6.18106 13.5919 6.15201 13.6016L5.83497 13.6984C5.81561 13.7032 5.80108 13.7105 5.7914 13.7202L5.78739 13.7241L5.78156 13.7295C5.77539 13.7351 5.76955 13.7404 5.76478 13.7468C5.75752 13.7541 5.74542 13.7734 5.74542 13.7734L5.12585 14.9471C5.10648 14.9834 5.11617 15.0076 5.15005 15.027L7.6235 16.3338C7.65981 16.3532 7.68401 16.3435 7.70337 16.3096L7.88246 15.9708C7.90183 15.9345 7.89215 15.9103 7.85826 15.891L6.96036 15.4166L7.17818 15.0028L8.2697 15.1117C8.28422 15.1141 8.30116 15.1117 8.3181 15.1044ZM6.78127 14.4535C6.79095 14.4583 6.80063 14.4777 6.80063 14.4777L6.80305 14.4801L6.83209 14.5696C6.83693 14.5817 6.82967 14.6011 6.82967 14.6011L6.52231 15.1843L5.7793 14.7923L6.08667 14.209C6.08909 14.2042 6.09635 14.1969 6.11087 14.1897L6.20284 14.1582C6.2101 14.1534 6.22462 14.1582 6.22462 14.1582L6.78127 14.4535Z" fill="white"/>
<path fill-rule="evenodd" clip-rule="evenodd" d="M7.15431 17.6332C7.17609 17.5703 7.17851 17.5219 7.16157 17.4856V17.4832L7.01394 17.1855C7.00426 17.1686 6.99458 17.1517 6.98248 17.1396C6.97038 17.125 6.95101 17.1154 6.92439 17.1057L4.89868 16.4063C4.87932 16.399 4.85753 16.399 4.83817 16.399C4.81881 16.4014 4.79945 16.4063 4.78251 16.416L4.48482 16.5612C4.46546 16.5733 4.44852 16.5854 4.43642 16.6023C4.42432 16.6192 4.41464 16.6338 4.4098 16.6507L4.05887 17.6695C4.05161 17.6937 4.04676 17.7131 4.04676 17.73C4.04918 17.747 4.05403 17.7639 4.06371 17.7857L4.2065 18.0882C4.2186 18.1124 4.23312 18.1294 4.24764 18.139C4.26216 18.1487 4.28636 18.1584 4.28636 18.1584L6.33144 18.865L6.33361 18.8658C6.34104 18.8683 6.35262 18.8723 6.37016 18.8723C6.38953 18.8747 6.41131 18.8699 6.43551 18.8578L6.73804 18.7102C6.76224 18.6981 6.77918 18.686 6.78886 18.669C6.79854 18.6521 6.80822 18.6327 6.80822 18.6327L7.15431 17.6332ZM6.57104 17.5147C6.58314 17.5195 6.59524 17.5364 6.59524 17.5364L6.59282 17.5413L6.62913 17.6163L6.39679 18.2867L6.32176 18.323C6.31208 18.3254 6.2903 18.323 6.2903 18.323L4.66876 17.7615C4.65666 17.7567 4.64456 17.7397 4.64456 17.7397L4.60583 17.6502C4.60341 17.6405 4.60583 17.6187 4.60583 17.6187L4.81155 17.0234C4.81397 17.0161 4.83091 17.004 4.83091 17.004L4.91804 16.9581C4.9253 16.9532 4.93256 16.9532 4.9374 16.9532H4.9495L6.57104 17.5147Z" fill="white"/>
<path d="M6.26369 20.9222C6.25885 20.9512 6.23706 20.9633 6.19834 20.9561L4.93257 20.7213L3.30377 21.2658C3.28441 21.2731 3.26989 21.2658 3.26021 21.2489C3.25053 21.2295 3.24569 21.2126 3.24811 21.1957L3.32555 20.7818C3.32797 20.7649 3.33765 20.7504 3.35218 20.7407C3.3667 20.7286 3.38122 20.7213 3.39816 20.7141L4.52356 20.3922L3.58694 19.688C3.58694 19.688 3.56273 19.6638 3.55305 19.6468C3.54337 19.6299 3.54095 19.6154 3.54337 19.5984L3.62082 19.1846C3.62324 19.1677 3.63292 19.1531 3.64986 19.1386C3.6668 19.1241 3.68132 19.1241 3.69585 19.1386L5.02212 20.2301L6.28789 20.4648C6.32661 20.4721 6.34355 20.4914 6.33629 20.5253L6.26369 20.9246V20.9222Z" fill="white"/>
<path d="M28.2948 6.50839C28.2779 6.50355 28.2634 6.49629 28.2513 6.47935C28.2392 6.46483 28.2319 6.44789 28.2295 6.43337L27.9028 4.51428L27.5155 6.27607C27.5083 6.31479 27.4841 6.32931 27.4453 6.31963L27.0702 6.23735C27.0315 6.22767 27.017 6.20589 27.0266 6.16717L27.6269 3.43494C27.6365 3.39622 27.6583 3.3817 27.697 3.39138L28.1956 3.50028C28.2222 3.50512 28.2392 3.52932 28.244 3.57046L28.5175 5.34435V5.46294L28.9023 3.71325C28.9096 3.67453 28.9338 3.66 28.9725 3.66968L29.3476 3.75197C29.3864 3.75923 29.4009 3.78343 29.3912 3.82215L28.791 6.55437C28.7837 6.5931 28.7595 6.60762 28.7208 6.59794L28.2973 6.50355L28.2948 6.50839Z" fill="white"/>
<path fill-rule="evenodd" clip-rule="evenodd" d="M30.9884 7.34322C30.952 7.36016 30.9036 7.35532 30.8407 7.33112L29.8509 6.95843C29.8509 6.95843 29.8315 6.94875 29.817 6.93907C29.8025 6.92939 29.7879 6.91003 29.7758 6.88583L29.6379 6.57849C29.6258 6.55429 29.6209 6.53251 29.6234 6.51314C29.6258 6.49378 29.6282 6.48168 29.6306 6.47442L30.393 4.44885C30.393 4.44885 30.4027 4.42465 30.4148 4.41013C30.4244 4.39561 30.4438 4.38109 30.468 4.36899L30.773 4.23347C30.7947 4.22378 30.8141 4.21895 30.8286 4.21895C30.8456 4.21895 30.8649 4.22378 30.8891 4.23347L31.8984 4.61341C31.9129 4.61825 31.9298 4.62793 31.9468 4.64003C31.9637 4.65213 31.9758 4.66907 31.9855 4.69085L32.121 4.99094C32.1283 5.00788 32.1331 5.02724 32.1355 5.0466C32.138 5.06596 32.1355 5.08774 32.1259 5.1071L31.3707 7.11089C31.3611 7.13752 31.349 7.15688 31.3369 7.16656C31.3248 7.17866 31.3078 7.18834 31.2909 7.1956L30.9884 7.33596V7.34322ZM30.9521 6.77693C30.9521 6.77693 30.969 6.76483 30.9738 6.75273L31.5789 5.14582V5.13372C31.5789 5.12888 31.5789 5.12162 31.574 5.11436L31.5305 5.02724C31.5305 5.02724 31.5184 5.0103 31.5111 5.00788L30.9206 4.78523C30.9206 4.78523 30.8988 4.78281 30.8891 4.78523L30.7996 4.82154C30.7996 4.82154 30.7826 4.83364 30.7778 4.84332L30.1727 6.45022C30.1727 6.45022 30.1703 6.472 30.1727 6.48168L30.2066 6.55671L30.8722 6.80597L30.9472 6.77209L30.9521 6.77693Z" fill="white"/>
<path fill-rule="evenodd" clip-rule="evenodd" d="M33.1955 8.50256C33.1809 8.4953 33.1712 8.48078 33.164 8.46384C33.1567 8.4469 33.1567 8.42996 33.1567 8.41544L33.2826 7.32642L32.8736 7.10135L32.3847 7.98951C32.3653 8.02339 32.3387 8.03065 32.3048 8.01371L31.9684 7.82979C31.9345 7.81043 31.9273 7.78381 31.9442 7.74993L33.2923 5.29842C33.3116 5.26454 33.3382 5.25728 33.3721 5.27422L34.5362 5.91311C34.5362 5.91311 34.5556 5.92521 34.5629 5.93247L34.5895 5.95909C34.5992 5.96877 34.6064 5.98329 34.6113 6.00265L34.7032 6.31968C34.7129 6.34872 34.7129 6.37776 34.7032 6.4068C34.7008 6.4189 34.696 6.42858 34.6911 6.43826L34.1805 7.36756C34.1563 7.41112 34.1224 7.44016 34.0812 7.45226L33.7473 7.54906L33.6166 8.66228C33.6166 8.6768 33.6069 8.6889 33.5948 8.69858C33.5827 8.70826 33.5657 8.70584 33.5415 8.69374L33.193 8.50256H33.1955ZM33.8174 6.95615C33.8174 6.95615 33.8368 6.94647 33.8416 6.93679L34.1466 6.38502C34.1466 6.38502 34.1514 6.3705 34.149 6.36324L34.12 6.27128C34.1127 6.25676 34.1054 6.2495 34.1006 6.24708L33.5222 5.93005L33.118 6.66575L33.6964 6.98277C33.6964 6.98277 33.7158 6.99003 33.7279 6.98519L33.8174 6.95857V6.95615Z" fill="white"/>
<path d="M34.5389 9.39059C34.5389 9.39059 34.522 9.37123 34.5196 9.35671C34.5196 9.34219 34.5196 9.33008 34.5293 9.32041L35.9354 7.42067L35.4659 7.07219C35.4344 7.04799 35.4296 7.02137 35.4538 6.98991L35.6813 6.68014C35.7055 6.64868 35.7321 6.64384 35.7636 6.66804L37.1092 7.66268C37.1092 7.66268 37.1286 7.68446 37.131 7.69898C37.1334 7.71592 37.131 7.73044 37.1213 7.74496L36.8938 8.05472C36.8841 8.06924 36.8696 8.0765 36.8551 8.0765C36.8381 8.0765 36.8236 8.0765 36.8139 8.06682L36.3396 7.71592L34.9334 9.61565C34.9141 9.64227 34.8923 9.64711 34.8657 9.62775L34.5389 9.38575V9.39059Z" fill="white"/>
<path d="M36.9177 11.4404C36.8887 11.4138 36.8887 11.3848 36.9177 11.3581L37.7188 10.5353L37.1089 9.94L36.3078 10.7628C36.2812 10.7919 36.2522 10.7919 36.2256 10.7628L35.9497 10.4942C35.9206 10.4676 35.9206 10.4385 35.9497 10.4119L37.9028 8.40811C37.9294 8.37907 37.9584 8.37907 37.9851 8.40811L38.261 8.67673C38.29 8.70335 38.29 8.7324 38.261 8.75902L37.4599 9.58183L38.0698 10.1772L38.8708 9.35435C38.8975 9.3253 38.9265 9.3253 38.9531 9.35435L39.229 9.62297C39.2581 9.64959 39.2581 9.67863 39.229 9.70525L37.2759 11.709C37.2493 11.7381 37.2203 11.7381 37.1936 11.709L36.9177 11.4404Z" fill="white"/>
<path d="M38.3844 13.1344C38.3626 13.103 38.3674 13.0764 38.3989 13.0522L40.6933 11.4501C40.7247 11.4283 40.7513 11.4331 40.7755 11.4646L41.6444 12.7061C41.6662 12.7375 41.6613 12.7642 41.6299 12.7884L41.3153 13.0086C41.3153 13.0086 41.2886 13.0207 41.2741 13.0183C41.2572 13.0183 41.2451 13.0086 41.2354 12.9941L40.6207 12.1156L40.0422 12.5197L40.5287 13.2143C40.5287 13.2143 40.5408 13.2409 40.5384 13.2554C40.5384 13.2724 40.5287 13.2845 40.5142 13.2942L40.1995 13.5144C40.185 13.5241 40.1705 13.5265 40.1536 13.5241C40.1366 13.5192 40.1245 13.512 40.1172 13.5023L39.6308 12.8077L39.0524 13.2119L39.6671 14.0904C39.6889 14.1218 39.684 14.1484 39.6526 14.1726L39.3379 14.3929C39.3065 14.4146 39.2799 14.4098 39.2557 14.3783L38.3868 13.1369L38.3844 13.1344Z" fill="white"/>
<path fill-rule="evenodd" clip-rule="evenodd" d="M40.3814 16.4597C40.3742 16.4451 40.3717 16.4282 40.3766 16.4088C40.3814 16.3895 40.3887 16.3725 40.4008 16.3604L40.8243 15.9611L40.4008 15.1311L39.8272 15.24C39.8102 15.2424 39.7909 15.24 39.7739 15.2327C39.757 15.2254 39.7425 15.2133 39.7352 15.1988L39.5706 14.8745C39.5634 14.86 39.561 14.8431 39.5658 14.8237C39.5706 14.8044 39.5803 14.7923 39.5973 14.7898L42.4628 14.2574H42.5088C42.5257 14.2574 42.5378 14.2671 42.5451 14.2816L42.7702 14.7197C42.7823 14.7439 42.775 14.7729 42.746 14.8019L40.6283 16.8057C40.6162 16.8178 40.6017 16.8202 40.5847 16.8154C40.5678 16.8081 40.5557 16.7985 40.546 16.7839L40.3814 16.4597ZM40.9235 15.0343L42.012 14.8291L41.2091 15.5957L40.9235 15.0343Z" fill="white"/>
<path d="M41.3179 18.8263C41.2961 18.8166 41.2791 18.8021 41.2695 18.7852C41.2574 18.7682 41.2501 18.7513 41.2453 18.7368L40.8992 17.7155C40.8895 17.6865 40.8847 17.6647 40.8895 17.6502C40.8919 17.6356 40.8992 17.6187 40.9089 17.5969L41.0541 17.2968C41.0662 17.2726 41.0783 17.2557 41.0928 17.246C41.1032 17.2377 41.1154 17.233 41.1263 17.2287L41.1315 17.2267L41.5357 17.0911C41.5478 17.0863 41.5623 17.0887 41.5793 17.0936C41.5938 17.1008 41.6059 17.1105 41.6107 17.1274L41.7341 17.4904C41.739 17.5074 41.739 17.5219 41.7293 17.5364C41.722 17.5509 41.7099 17.5606 41.6978 17.5655L41.4123 17.6623L41.6519 18.3713C41.6519 18.3713 41.6591 18.381 41.6712 18.3859L41.7583 18.4318C41.7583 18.4318 41.7777 18.4391 41.7898 18.4343L42.2521 18.277C42.2521 18.277 42.2714 18.2673 42.2763 18.2552L42.3174 18.1705C42.3174 18.1705 42.3223 18.1487 42.3198 18.139L42.0415 17.3162C42.0415 17.3162 42.0367 17.2944 42.0367 17.2751C42.0367 17.2557 42.0415 17.2339 42.0536 17.2097L42.1988 16.9096C42.2085 16.8879 42.223 16.8733 42.2375 16.8612C42.2521 16.8491 42.269 16.8419 42.2835 16.837L43.1742 16.5369C43.1863 16.5321 43.2032 16.5297 43.225 16.5297C43.2444 16.5297 43.2686 16.5345 43.2928 16.5466L43.588 16.6943L43.5989 16.7004C43.6113 16.7073 43.6222 16.7133 43.6316 16.7209C43.6413 16.7306 43.6534 16.7523 43.6631 16.7838L44.0091 17.8051C44.014 17.822 44.0164 17.8389 44.0164 17.8607C44.0164 17.8825 44.0116 17.9019 44.0043 17.9212L43.8567 18.2165C43.8397 18.2455 43.8252 18.2649 43.8131 18.2745C43.801 18.2842 43.7865 18.2915 43.7695 18.2963L43.3533 18.4367C43.317 18.4488 43.2928 18.4367 43.2782 18.4004L43.1548 18.0374C43.1427 18.0011 43.1548 17.9769 43.1911 17.9624L43.4961 17.8583L43.2613 17.1613C43.2613 17.1613 43.2492 17.142 43.2395 17.1347L43.1524 17.0887C43.1524 17.0887 43.133 17.0815 43.1209 17.0863L42.6611 17.2412C42.6611 17.2412 42.6417 17.2509 42.6369 17.263L42.5933 17.3525C42.5933 17.3525 42.5885 17.3743 42.5933 17.3888L42.8644 18.1923C42.8789 18.2334 42.8765 18.2721 42.8595 18.3084L42.7119 18.6037C42.6901 18.6424 42.6611 18.669 42.6248 18.6811L41.739 18.9812C41.7003 18.9957 41.6591 18.9909 41.6204 18.9715L41.3203 18.8263H41.3179Z" fill="white"/>
<path d="M41.6444 20.3366C41.642 20.3221 41.6444 20.31 41.6517 20.2979C41.6589 20.2858 41.671 20.2785 41.6831 20.2761L44.0017 19.8235L43.8904 19.25C43.8831 19.2113 43.8976 19.1895 43.9363 19.1822L44.3139 19.1096C44.3526 19.1024 44.3744 19.1169 44.3817 19.1556L44.7036 20.7988C44.706 20.8133 44.7036 20.8254 44.6939 20.8399C44.6842 20.8545 44.6721 20.8641 44.6576 20.8666L44.28 20.9392C44.2631 20.9416 44.2486 20.9392 44.2365 20.9295C44.2219 20.9198 44.2147 20.9077 44.2122 20.8932L44.0985 20.3148L41.7799 20.7673C41.7461 20.7746 41.7267 20.7625 41.7219 20.731L41.6444 20.3342V20.3366Z" fill="white"/>
<path fill-rule="evenodd" clip-rule="evenodd" d="M3.29874 26.8923C3.29148 26.8536 3.30843 26.8318 3.34715 26.8246L6.10135 26.3333C6.14007 26.326 6.16185 26.343 6.16911 26.3817L6.40387 27.6885L6.40428 27.6917C6.40655 27.7098 6.40858 27.7259 6.40629 27.7442C6.40629 27.7611 6.39661 27.7805 6.37967 27.8047L6.19089 28.0757C6.16911 28.1023 6.15217 28.1193 6.13523 28.1265C6.11829 28.1338 6.10377 28.1386 6.09409 28.1411L5.03645 28.3298C4.99531 28.3371 4.95659 28.3298 4.9227 28.3032L4.65164 28.1144C4.6347 28.1023 4.6226 28.0902 4.6105 28.0757C4.5984 28.0612 4.59114 28.0418 4.5863 28.0152L4.4314 27.144L3.4367 27.3207C3.39797 27.3279 3.37619 27.311 3.36893 27.2747L3.30117 26.8972L3.29874 26.8923ZM5.1381 27.7853C5.1381 27.7853 5.1502 27.7926 5.15504 27.7901L5.78914 27.6764C5.78914 27.6764 5.80366 27.6716 5.8085 27.6643L5.86417 27.5772C5.86417 27.5772 5.86901 27.5627 5.86901 27.5554L5.75284 26.902L4.92755 27.0496L5.04371 27.703C5.04371 27.703 5.05097 27.7224 5.05582 27.7272L5.1381 27.7853Z" fill="white"/>
<path fill-rule="evenodd" clip-rule="evenodd" d="M4.41209 31.1613C4.37579 31.1443 4.34917 31.1032 4.32739 31.0403L3.99582 30.0384C3.99582 30.0384 3.99098 30.0166 3.98856 29.9997C3.98856 29.9803 3.99098 29.9585 4.0055 29.9343L4.15555 29.6342C4.16765 29.61 4.18217 29.5931 4.19912 29.5834L4.20473 29.5801L4.2122 29.5757C4.22167 29.5699 4.22854 29.5658 4.23542 29.5641L6.29017 28.884C6.29017 28.884 6.31438 28.8792 6.33374 28.8768C6.3531 28.8768 6.37246 28.8816 6.39908 28.8937L6.69677 29.0462C6.71855 29.0558 6.73307 29.0679 6.74275 29.08C6.75244 29.0921 6.76212 29.1115 6.76938 29.1357L7.10821 30.1594C7.11305 30.1763 7.11547 30.1933 7.11789 30.2126C7.11789 30.232 7.11305 30.2538 7.10337 30.2755L6.95573 30.5708C6.94605 30.5877 6.93637 30.6047 6.92185 30.6168C6.90733 30.6313 6.89039 30.641 6.86861 30.6482L4.83563 31.321C4.80901 31.3307 4.78723 31.3331 4.77028 31.3307C4.75607 31.3287 4.74186 31.3232 4.72621 31.3172L4.71704 31.3137L4.41693 31.1661L4.41209 31.1613ZM4.83079 30.7765C4.83079 30.7765 4.85257 30.7838 4.86225 30.7789L6.49105 30.2392C6.49105 30.2392 6.49831 30.2368 6.50315 30.2344C6.50799 30.232 6.51283 30.2271 6.51525 30.2199L6.5564 30.1328C6.5564 30.1328 6.56366 30.1134 6.56124 30.1061L6.36278 29.5084C6.36278 29.5084 6.3531 29.489 6.341 29.4842L6.25629 29.4382C6.25629 29.4382 6.23451 29.431 6.22483 29.4358L4.59603 29.9755C4.59603 29.9755 4.57667 29.9851 4.57183 29.9972L4.53552 30.0723L4.75818 30.745L4.83321 30.7813L4.83079 30.7765Z" fill="white"/>
<path d="M5.65378 33.9952C5.63926 33.9686 5.64652 33.9396 5.67798 33.9129L6.62428 32.9231L5.26896 33.1192C5.23024 33.1264 5.20362 33.1192 5.1891 33.095L5.00032 32.7271C4.99306 32.715 4.99306 32.7005 5.00032 32.686C5.00758 32.6715 5.01484 32.6593 5.02694 32.6521L7.41327 31.1734C7.44715 31.1565 7.47378 31.1638 7.49314 31.1976L7.66981 31.5389C7.68675 31.5728 7.67949 31.5994 7.64561 31.6187L6.13298 32.5287L7.0575 32.427C7.09864 32.4222 7.12769 32.4343 7.14463 32.4682L7.2971 32.7658C7.31404 32.7997 7.3092 32.8336 7.28258 32.8626L6.663 33.5572L8.28212 32.853C8.31601 32.836 8.34263 32.8433 8.36199 32.8772L8.53867 33.2184C8.54593 33.2305 8.54593 33.245 8.54109 33.2619C8.53625 33.2789 8.52657 33.291 8.51204 33.2982L5.92242 34.38C5.91032 34.3873 5.8958 34.3873 5.88128 34.3848C5.86676 34.3824 5.85466 34.3727 5.84739 34.3582L5.66104 33.9952H5.65378Z" fill="white"/>
<path d="M6.61221 35.5875C6.59043 35.5561 6.59285 35.5294 6.62673 35.5052L8.89931 33.8717C8.93077 33.8499 8.9574 33.8524 8.9816 33.8862L9.86739 35.118C9.88918 35.1495 9.88675 35.1761 9.85287 35.2003L9.54067 35.4254C9.54067 35.4254 9.51646 35.4375 9.49952 35.4351C9.48258 35.4351 9.47048 35.4254 9.4608 35.4133L8.83397 34.5421L8.26038 34.9535L8.7541 35.6408C8.7541 35.6408 8.7662 35.665 8.76378 35.6819C8.76378 35.6988 8.7541 35.7109 8.742 35.7206L8.42979 35.9457C8.41527 35.9554 8.40075 35.9578 8.38381 35.9554C8.36687 35.9505 8.35476 35.9433 8.3475 35.9336L7.85378 35.2463L7.28019 35.6577L7.90702 36.5289C7.92881 36.5604 7.92639 36.587 7.8925 36.6112L7.5803 36.8363C7.54883 36.8581 7.52221 36.8556 7.49801 36.8218L6.61221 35.59V35.5875Z" fill="white"/>
<path fill-rule="evenodd" clip-rule="evenodd" d="M9.23549 38.7602C9.23549 38.7602 9.21854 38.7336 9.21612 38.7143C9.21612 38.6949 9.21612 38.6804 9.22339 38.6659L9.66144 37.6615L9.33471 37.3252L8.60623 38.0318C8.57719 38.0584 8.55057 38.0584 8.52395 38.0318L8.2553 37.7559C8.22868 37.7269 8.22868 37.7003 8.2553 37.6736L10.2617 35.7231C10.2907 35.6965 10.3173 35.6965 10.3439 35.7231L11.2685 36.6742C11.2685 36.6742 11.283 36.6911 11.2878 36.7008L11.2901 36.7052L11.2929 36.7105C11.2969 36.718 11.3015 36.7264 11.3048 36.7347C11.3096 36.7468 11.312 36.7613 11.312 36.7831L11.3072 37.1146C11.3072 37.1461 11.2975 37.1727 11.283 37.1969L11.2804 37.2005L11.2775 37.2047C11.2727 37.2117 11.2683 37.2182 11.2612 37.2235L10.5013 37.9641C10.465 37.9979 10.4262 38.0173 10.3827 38.0149L10.0342 38.01L9.58158 39.0386C9.57674 39.0531 9.56463 39.0603 9.55011 39.0652C9.53559 39.07 9.51865 39.0652 9.50171 39.0458L9.22581 38.7602H9.23549ZM10.281 37.4631C10.281 37.4631 10.3028 37.4607 10.3101 37.451L10.7626 37.0106C10.7626 37.0106 10.7723 36.9985 10.7723 36.9912V36.8944C10.7675 36.8775 10.7626 36.8678 10.7602 36.8654L10.3004 36.3934L9.69775 36.9791L10.1576 37.451C10.1576 37.451 10.1745 37.4631 10.1866 37.4631H10.281Z" fill="white"/>
<path d="M10.3271 39.7961C10.2956 39.7719 10.2932 39.7453 10.3174 39.7138L12.0769 37.5261C12.0769 37.5261 12.0987 37.5092 12.1132 37.5092C12.1301 37.5092 12.1422 37.514 12.1543 37.5237L12.4544 37.7633C12.4544 37.7633 12.4714 37.7851 12.4762 37.7996C12.4811 37.8141 12.4762 37.8286 12.469 37.8383L10.9878 39.68L11.9486 40.452C11.9801 40.4762 11.9825 40.5028 11.9583 40.5342L11.7163 40.8343C11.6921 40.8658 11.6654 40.8682 11.634 40.844L10.3295 39.7937L10.3271 39.7961Z" fill="white"/>
<path d="M12.5611 41.4659C12.5272 41.4441 12.5224 41.4175 12.5442 41.386L14.0568 39.0313C14.0786 38.9974 14.1052 38.9926 14.1366 39.0144L14.461 39.2225C14.4948 39.2443 14.4997 39.2709 14.4779 39.3024L12.9653 41.6571C12.9435 41.6909 12.9169 41.6958 12.8854 41.674L12.5611 41.4659Z" fill="white"/>
<path d="M13.9572 42.3177C13.9234 42.3008 13.9137 42.2742 13.9306 42.2403L15.1915 39.7428C15.2085 39.7089 15.2351 39.6992 15.269 39.7162L16.6219 40.3986C16.6558 40.4156 16.6654 40.4422 16.6485 40.4761L16.4743 40.8197C16.4743 40.8197 16.4597 40.8391 16.4452 40.8488C16.4307 40.8584 16.4186 40.8584 16.4065 40.8512L15.436 40.3623L15.1189 40.9915L15.8789 41.3763C15.9128 41.3933 15.9224 41.4199 15.9055 41.4538L15.7312 41.7974C15.7143 41.8313 15.6877 41.841 15.6538 41.824L14.8939 41.4393L14.3759 42.4653C14.359 42.4992 14.3324 42.5089 14.2985 42.492L13.9548 42.3177H13.9572Z" fill="white"/>
<path d="M16.8665 43.6198C16.8544 43.615 16.8447 43.6077 16.8375 43.5932C16.8302 43.5787 16.8302 43.569 16.8375 43.5545L17.6216 41.3256L17.0698 41.132C17.0335 41.1199 17.0214 41.0933 17.0335 41.057L17.1618 40.694C17.1739 40.6577 17.2005 40.6456 17.2368 40.6577L18.8172 41.2119C18.8293 41.2167 18.8414 41.2264 18.8487 41.2409C18.8559 41.2554 18.8583 41.2699 18.8535 41.2869L18.7252 41.6499C18.7204 41.6644 18.7083 41.6765 18.6938 41.6838C18.6792 41.691 18.6647 41.691 18.6502 41.6862L18.0936 41.4902L17.3094 43.719C17.2973 43.7505 17.2779 43.7602 17.2489 43.7505L16.8665 43.6174V43.6198Z" fill="white"/>
<path d="M18.9236 44.2465C18.8848 44.2369 18.8703 44.2151 18.88 44.1764L19.531 41.4562C19.5407 41.4175 19.5625 41.403 19.6012 41.4127L19.9739 41.5022C20.0126 41.5119 20.0272 41.5337 20.0175 41.5724L19.3665 44.2925C19.3568 44.3312 19.335 44.3458 19.2963 44.3361L18.9236 44.2465Z" fill="white"/>
<path d="M21.7771 44.7547C21.7602 44.7547 21.7457 44.745 21.7311 44.7305C21.7166 44.716 21.7093 44.7014 21.7045 44.6869L21.2059 42.8065L20.9809 44.5974C20.976 44.6361 20.9542 44.653 20.9155 44.6482L20.5331 44.5998C20.4944 44.595 20.4775 44.5732 20.4823 44.5345L20.8308 41.7587C20.8357 41.7199 20.8574 41.703 20.8962 41.7078L21.402 41.7708C21.4286 41.7732 21.448 41.7974 21.4576 41.8361L21.8909 43.5785L21.9005 43.6971L22.1232 41.9208C22.128 41.8821 22.1498 41.8651 22.1885 41.87L22.5685 41.9184C22.6072 41.9232 22.6242 41.945 22.6193 41.9837L22.2708 44.7595C22.266 44.7982 22.2442 44.8152 22.2055 44.8103L21.7747 44.7571L21.7771 44.7547Z" fill="white"/>
<path d="M25.0226 44.8103C25.0057 44.8297 24.9936 44.8418 24.9815 44.8466C24.9694 44.8515 24.9573 44.8539 24.9452 44.8539L23.827 44.8732C23.827 44.8732 23.8053 44.8732 23.7883 44.8684C23.7714 44.8636 23.752 44.8539 23.7302 44.8345L23.4882 44.5998C23.4688 44.5804 23.4567 44.5611 23.4519 44.5441C23.4471 44.5272 23.4446 44.5127 23.4446 44.5054L23.4059 42.3516C23.4059 42.308 23.418 42.2717 23.4446 42.2427L23.6794 42.0055C23.6963 41.9886 23.7109 41.9765 23.7254 41.9716C23.7399 41.9668 23.7593 41.9619 23.7883 41.9619L24.8653 41.9426C24.8798 41.9426 24.8943 41.9426 24.9137 41.945C24.9306 41.9474 24.9524 41.9595 24.9742 41.9813L25.2114 42.2112C25.2283 42.2281 25.2404 42.2427 25.2477 42.2572C25.255 42.2717 25.2598 42.2911 25.2598 42.3201L25.2671 42.7678C25.2671 42.8065 25.2477 42.8259 25.209 42.8283L24.8242 42.8356C24.7854 42.8356 24.7661 42.8162 24.7637 42.7775L24.7588 42.5573C24.7588 42.5428 24.754 42.5331 24.7467 42.5282L24.6741 42.4629C24.6741 42.4629 24.6547 42.4508 24.6402 42.4508L24.0231 42.4629C24.0085 42.4629 23.9989 42.4677 23.9892 42.475L23.919 42.5428C23.919 42.5428 23.9069 42.5621 23.9069 42.5718L23.9384 44.2876C23.9384 44.2876 23.9432 44.3094 23.9505 44.3166L24.011 44.3747L24.7201 44.3626L24.7782 44.3021C24.7782 44.3021 24.7903 44.2828 24.7903 44.2731L24.7806 43.7939L24.3934 43.8012C24.3546 43.8012 24.3353 43.7818 24.3329 43.7431L24.3256 43.3583C24.3256 43.3196 24.345 43.3002 24.3837 43.2978L25.2138 43.2833C25.2525 43.2833 25.2719 43.3026 25.2743 43.3414L25.2961 44.4981C25.2961 44.4981 25.2913 44.5223 25.284 44.5344C25.2767 44.5465 25.2646 44.5611 25.2525 44.5756L25.0226 44.8176V44.8103Z" fill="white"/>
<path d="M28.152 44.4643C28.1133 44.474 28.0915 44.4595 28.0819 44.4208L27.4357 41.6982C27.426 41.6595 27.4405 41.6377 27.4792 41.628L28.9531 41.2771C28.9919 41.2674 29.0136 41.282 29.0233 41.3207L29.1129 41.6958C29.1129 41.6958 29.1129 41.72 29.1104 41.7345C29.1056 41.749 29.0959 41.7587 29.0838 41.7636L28.0262 42.0152L28.1883 42.7025L29.0185 42.5065C29.0572 42.4968 29.079 42.5113 29.0887 42.5501L29.1782 42.9228C29.1879 42.9615 29.1734 42.9833 29.1346 42.9929L28.3045 43.189L28.5707 44.307C28.5804 44.3457 28.5659 44.3675 28.5272 44.3772L28.152 44.4667V44.4643Z" fill="white"/>
<path d="M30.7535 43.76C30.7172 43.7745 30.693 43.7624 30.6785 43.7261L29.6862 41.1101C29.6716 41.0738 29.6837 41.0496 29.7201 41.035L31.1383 40.4978C31.1746 40.4833 31.1988 40.4954 31.2133 40.5317L31.3489 40.8898C31.3537 40.9019 31.3537 40.9165 31.3489 40.9334C31.344 40.9503 31.3319 40.96 31.3174 40.9649L30.313 41.3448L30.5623 42.0055L31.3561 41.7054C31.3682 41.7006 31.3827 41.7006 31.3997 41.7054C31.4142 41.7102 31.4263 41.7223 31.4311 41.7369L31.5667 42.095C31.5715 42.1095 31.5715 42.1265 31.5642 42.141C31.557 42.1555 31.5449 42.1652 31.5328 42.17L30.739 42.4701L30.9882 43.1308L31.9926 42.7509C32.0289 42.7363 32.0531 42.7484 32.0677 42.7847L32.2032 43.1429C32.2177 43.1792 32.2056 43.2034 32.1693 43.2179L30.7511 43.7552L30.7535 43.76Z" fill="white"/>
<path fill-rule="evenodd" clip-rule="evenodd" d="M34.4976 42.0006C34.4903 42.0273 34.4782 42.0466 34.4661 42.0587C34.4516 42.0708 34.4322 42.0853 34.4056 42.0999L33.2584 42.7266C33.2246 42.746 33.1979 42.7387 33.1786 42.7024L31.8402 40.2461C31.8208 40.2122 31.8305 40.1856 31.8644 40.1662L33.0309 39.5298C33.0455 39.5225 33.06 39.5153 33.0769 39.5104C33.0939 39.5056 33.1156 39.5056 33.1471 39.5152L33.4642 39.6096C33.498 39.6193 33.5198 39.6314 33.5295 39.6435C33.5392 39.6556 33.5489 39.6677 33.5561 39.6847L34.5847 41.5699C34.5944 41.5892 34.5992 41.6086 34.5992 41.6279C34.5992 41.6473 34.5992 41.6667 34.5944 41.6836L34.5024 42.0055L34.4976 42.0006ZM34.0402 41.6594C34.0402 41.6594 34.045 41.64 34.0377 41.6279L33.2173 40.1203C33.2173 40.1203 33.2163 40.119 33.2146 40.1172C33.2131 40.1157 33.2111 40.1136 33.2088 40.1115C33.2071 40.1099 33.2052 40.1082 33.2033 40.1067L33.2018 40.1055L33.1998 40.1042C33.1975 40.1026 33.1952 40.1014 33.1931 40.1009L33.1035 40.0743C33.1035 40.0743 33.0818 40.0743 33.0721 40.0767L32.4936 40.3913L33.4085 42.0708L34.0208 41.7368L34.045 41.657L34.0402 41.6594Z" fill="white"/>
<path d="M35.7973 41.2286C35.7659 41.2528 35.7392 41.248 35.715 41.2165L34.0548 38.9635C34.0306 38.932 34.0354 38.9054 34.0669 38.8812L35.2867 37.9809C35.3181 37.9567 35.3447 37.9616 35.3689 37.993L35.5964 38.3028C35.5964 38.3028 35.6085 38.327 35.6061 38.3439C35.6061 38.3609 35.5964 38.373 35.5843 38.3827L34.7203 39.0191L35.139 39.5878L35.8215 39.0845C35.8215 39.0845 35.8457 39.0724 35.8627 39.0748C35.8796 39.0748 35.8917 39.0845 35.9014 39.0966L36.1289 39.4063C36.1386 39.4209 36.141 39.4354 36.1386 39.4523C36.1362 39.4693 36.1289 39.4814 36.1168 39.4886L35.4343 39.992L35.853 40.5607L36.717 39.9242C36.7485 39.9 36.7751 39.9049 36.7993 39.9363L37.0268 40.2461C37.051 40.2776 37.0461 40.3042 37.0147 40.3284L35.7949 41.2286H35.7973Z" fill="white"/>
<path fill-rule="evenodd" clip-rule="evenodd" d="M38.9317 38.5836C38.9317 38.5836 38.9051 38.6006 38.8857 38.603C38.8663 38.603 38.8518 38.603 38.8373 38.5957L37.8329 38.1553L37.4965 38.482L38.2032 39.2104C38.2298 39.2395 38.2298 39.2661 38.2032 39.2927L37.9273 39.5613C37.8983 39.588 37.8716 39.588 37.845 39.5613L35.8943 37.5551C35.8677 37.5261 35.8677 37.4995 35.8943 37.4728L36.8455 36.546C36.8455 36.546 36.8624 36.5314 36.8721 36.5266C36.8752 36.5251 36.8785 36.5233 36.8819 36.5214C36.8894 36.5174 36.8977 36.513 36.906 36.5097C36.9181 36.5048 36.9326 36.5 36.9544 36.5024L37.2859 36.5072C37.3174 36.5072 37.344 36.5169 37.3682 36.5314C37.3709 36.5334 37.3735 36.5352 37.3761 36.537C37.383 36.5417 37.3896 36.5462 37.3948 36.5532L38.1354 37.3131C38.1693 37.3494 38.1887 37.3881 38.1863 37.4317L38.1814 37.7802L39.2076 38.2327C39.2221 38.24 39.2294 38.2497 39.2342 38.2642C39.2391 38.2787 39.2342 38.2957 39.2148 38.3126L38.9317 38.5885V38.5836ZM37.6345 37.5382C37.6345 37.5382 37.632 37.5164 37.6223 37.5091L37.1819 37.0566C37.1819 37.0566 37.1698 37.0469 37.1625 37.0469H37.0657C37.063 37.0477 37.0604 37.0485 37.0581 37.0492L37.0526 37.0511C37.0437 37.0544 37.0384 37.0573 37.0367 37.059L36.5647 37.5188L37.1504 38.1214L37.6223 37.6616C37.6223 37.6616 37.6345 37.6447 37.6345 37.6326V37.5382Z" fill="white"/>
<path fill-rule="evenodd" clip-rule="evenodd" d="M40.9547 36.1927C40.945 36.2048 40.9305 36.2144 40.9111 36.2193C40.8917 36.2241 40.8748 36.2241 40.8579 36.2193L40.3157 36.0063L39.7446 36.742L40.0882 37.2139C40.0979 37.2284 40.1028 37.2454 40.1028 37.2647C40.1028 37.2841 40.0979 37.301 40.0882 37.3131L39.8656 37.6011C39.8559 37.6132 39.8414 37.6229 39.822 37.6278C39.8027 37.6326 39.7881 37.6277 39.7785 37.6132L38.0746 35.2488C38.0674 35.2367 38.0601 35.2222 38.0553 35.2077C38.0504 35.1932 38.0504 35.1787 38.0625 35.1641L38.3651 34.7745C38.382 34.7527 38.411 34.7479 38.4498 34.76L41.1652 35.8224C41.1822 35.8272 41.1919 35.8393 41.1919 35.8587C41.1919 35.8781 41.1894 35.8926 41.1798 35.9071L40.9571 36.1951L40.9547 36.1927ZM38.7837 35.4086L39.4348 36.3088L39.822 35.8103L38.7862 35.4086H38.7837Z" fill="white"/>
<path d="M41.8647 34.7963C41.8647 34.7963 41.8478 34.8157 41.8332 34.8205C41.8187 34.8229 41.8066 34.8205 41.7945 34.8157L39.7615 33.6105L39.4638 34.1139C39.4445 34.1478 39.4179 34.155 39.384 34.1332L39.0524 33.9372C39.0185 33.9179 39.0113 33.8912 39.0331 33.8573L39.8874 32.4174C39.8874 32.4174 39.9067 32.3981 39.9213 32.3908C39.9382 32.386 39.9527 32.3884 39.9673 32.3956L40.2988 32.5917C40.3133 32.6013 40.323 32.6134 40.3254 32.6304C40.3279 32.6473 40.3254 32.6618 40.3206 32.6739L40.0205 33.1797L42.0535 34.3849C42.0825 34.4019 42.0898 34.4236 42.0728 34.4503L41.8671 34.7987L41.8647 34.7963Z" fill="white"/>
<path d="M42.8812 32.9013C42.8643 32.9376 42.8401 32.9473 42.8038 32.9304L40.2626 31.7615C40.2263 31.7446 40.2166 31.7204 40.2335 31.6841L40.3933 31.3356C40.4102 31.2993 40.4344 31.2896 40.4707 31.3065L43.0119 32.4754C43.0482 32.4923 43.0579 32.5165 43.041 32.5528L42.8812 32.9013Z" fill="white"/>
<path fill-rule="evenodd" clip-rule="evenodd" d="M43.9729 29.9538C43.9898 29.9901 43.9898 30.0385 43.968 30.1014L43.6365 31.1033C43.6365 31.1033 43.6268 31.1227 43.6171 31.1396C43.6074 31.1565 43.5905 31.1686 43.5663 31.1832L43.2662 31.3332C43.242 31.3453 43.2202 31.3501 43.2008 31.3501C43.1833 31.3501 43.1717 31.3462 43.1643 31.3436L43.1621 31.3429L41.1098 30.6628C41.1098 30.6628 41.0856 30.6532 41.071 30.6435C41.0541 30.6338 41.042 30.6169 41.0299 30.5927L40.8823 30.2926C40.8726 30.2708 40.8653 30.2539 40.8653 30.2369C40.8653 30.22 40.8677 30.2006 40.8774 30.1764L41.2163 29.1527C41.2202 29.139 41.2273 29.1269 41.235 29.1137L41.2405 29.1043C41.2526 29.0874 41.2671 29.0729 41.2889 29.0632L41.5841 28.9156C41.6011 28.9059 41.6204 28.9011 41.6398 28.8986C41.6592 28.8986 41.6809 28.8986 41.7003 28.9059L43.7333 29.5811C43.7599 29.5908 43.7793 29.6004 43.7914 29.6125C43.8035 29.6246 43.8131 29.6416 43.8228 29.6585L43.9753 29.9562L43.9729 29.9538ZM43.409 30.0119C43.409 30.0119 43.3969 29.9949 43.3848 29.9901L41.756 29.4504H41.7439C41.739 29.4504 41.7318 29.4504 41.7245 29.4552L41.6398 29.5012C41.6398 29.5012 41.6228 29.5133 41.6204 29.5206L41.422 30.1183C41.422 30.1183 41.4196 30.1401 41.4244 30.1498L41.4655 30.2393C41.4655 30.2393 41.4801 30.2563 41.4897 30.2611L43.1185 30.8008C43.1185 30.8008 43.1403 30.8032 43.15 30.7984L43.225 30.7621L43.4477 30.0893L43.4114 30.0143L43.409 30.0119Z" fill="white"/>
<path d="M44.6213 27.253C44.6188 27.2699 44.6091 27.2844 44.5946 27.2965C44.5801 27.3086 44.5656 27.3183 44.5511 27.3207L42.6464 27.7249L44.4228 28.0395C44.4615 28.0467 44.476 28.0685 44.4712 28.1072L44.4034 28.4848C44.3962 28.5235 44.3744 28.538 44.3357 28.5332L41.5815 28.0443C41.5427 28.0371 41.5282 28.0153 41.5331 27.9766L41.6226 27.4756C41.6275 27.449 41.6492 27.4321 41.6904 27.4248L43.4523 27.0811L43.5709 27.0763L41.8066 26.7641C41.7678 26.7569 41.7533 26.7351 41.7581 26.6964L41.8259 26.3188C41.8332 26.2801 41.855 26.2656 41.8937 26.2704L44.6479 26.7593C44.6866 26.7665 44.7011 26.7883 44.6963 26.827L44.6213 27.2554V27.253Z" fill="white"/>
<path fill-rule="evenodd" clip-rule="evenodd" d="M22.0818 25.939C22.5973 26.4544 23.2822 26.7376 24.0107 26.7376L24.0131 26.74C24.7416 26.74 25.4265 26.4569 25.942 25.9414C27.0069 24.8766 27.0069 23.1462 25.942 22.0814C24.8771 21.0166 23.1467 21.0166 22.0818 22.0814C21.5663 22.5969 21.2831 23.2818 21.2831 24.0102C21.2831 24.7386 21.5663 25.4235 22.0818 25.939ZM22.4497 22.4493C22.8805 22.0185 23.4444 21.8031 24.0107 21.8031C24.577 21.8031 25.1409 22.0185 25.5717 22.4493C26.4333 23.3108 26.4333 24.7096 25.5717 25.5711C25.1554 25.9874 24.6012 26.2173 24.0107 26.2173C23.4202 26.2173 22.8659 25.9874 22.4497 25.5711C22.0334 25.1549 21.8035 24.6007 21.8035 24.0102C21.8035 23.4197 22.0189 22.88 22.4497 22.4493Z" fill="white"/>
<path fill-rule="evenodd" clip-rule="evenodd" d="M28.5729 19.4483C28.3676 19.243 28.1517 19.0544 27.927 18.8826L33.5778 13.1344L27.5055 18.5863C25.3864 17.2209 22.6358 17.2212 20.517 18.5874L14.4436 13.1344L20.0956 18.8838C19.8714 19.0553 19.6561 19.2434 19.4512 19.4483C19.2467 19.6524 19.0577 19.8678 18.8846 20.0931L13.1368 14.4412L18.5885 20.5123C17.9192 21.545 17.561 22.7498 17.561 24.0077C17.561 25.2655 17.9205 26.469 18.5895 27.5019L13.1368 33.5741L18.8865 27.9227C19.0591 28.1477 19.2475 28.363 19.4512 28.567C19.6552 28.7715 19.8706 28.9605 20.0959 29.1336L14.4436 34.8833L20.5165 29.4307C21.5483 30.0992 22.7518 30.4571 24.0108 30.4571L24.0133 30.4595C25.2703 30.4595 26.4744 30.1005 27.5067 29.4324L33.5778 34.8833L27.9274 29.1356C28.153 28.9626 28.3687 28.7737 28.5729 28.5695C28.7779 28.3645 28.9661 28.1491 29.1376 27.925L34.8873 33.5741L29.4349 27.5022C30.8005 25.3832 30.8002 22.6328 29.434 20.5141L34.8873 14.4412L29.1376 20.0927C28.966 19.8686 28.7778 19.6532 28.5729 19.4483ZM24.0108 18.0834C22.4934 18.0834 20.9759 18.6618 19.819 19.8162C18.6985 20.9366 18.0837 22.425 18.0837 24.0077C18.0837 25.5904 18.7009 27.0787 19.819 28.1992C20.9396 29.3197 22.428 29.9344 24.0108 29.9344C25.5937 29.9344 27.0821 29.3172 28.2026 28.1992C30.5139 25.888 30.5139 22.1273 28.2026 19.8162C27.0482 18.6618 25.5283 18.0834 24.0108 18.0834Z" fill="white"/>
<path fill-rule="evenodd" clip-rule="evenodd" d="M24.0012 47.9976C17.8515 47.9976 11.7017 45.6574 7.02103 40.977C-2.34034 31.6163 -2.34034 16.3822 7.02103 7.02145C16.3824 -2.34169 31.6176 -2.33927 40.979 7.02145C50.3403 16.3846 50.3403 31.6163 40.979 40.9795C36.2983 45.6598 30.1485 48 23.9988 48L24.0012 47.9976ZM24.0012 1.04152C18.1201 1.04152 12.2366 3.28006 7.75919 7.75714C3.34781 12.1682 1.1096 17.9424 1.04457 23.7367H7.99607C8.06308 19.5592 9.72128 15.6423 12.6819 12.6819C18.9236 6.44064 29.0788 6.44064 35.3205 12.6819C38.3745 15.7356 39.9342 19.7261 39.9997 23.7367H46.9554C46.8904 17.9424 44.6522 12.1682 40.2408 7.75714C35.7658 3.28006 29.8823 1.04152 24.0012 1.04152ZM46.9554 24.2595C46.8897 30.0529 44.6515 35.8261 40.2408 40.2365C31.286 49.1907 16.714 49.1907 7.75919 40.2365C3.34845 35.8261 1.11025 30.0529 1.0446 24.2595H7.99599C8.06183 28.4388 9.72016 32.3575 12.6819 35.319C15.8015 38.4384 19.9014 39.9993 24.0012 39.9993C28.101 39.9993 32.1985 38.4408 35.3205 35.319C38.3757 32.2641 39.9354 28.2716 39.9997 24.2595H46.9554ZM24.0012 8.52187C20.0345 8.52187 16.0702 10.032 13.0498 13.0498C10.1237 15.9756 8.5143 19.8622 8.5143 24.0005C8.5143 28.1387 10.1262 32.0253 13.0498 34.9511C19.0882 40.9891 28.9118 40.9891 34.9502 34.9511C40.9887 28.9131 40.9887 19.0902 34.9502 13.0522C31.9322 10.0344 27.9655 8.52429 23.9988 8.52429L24.0012 8.52187Z" fill="white"/>
<path d="M24.2699 14.0831C24.282 14.0928 24.2965 14.0977 24.3086 14.0977L24.311 14.0928H24.6547C24.6862 14.0928 24.7007 14.0783 24.7007 14.0468L24.6789 11.8325C24.6789 11.801 24.6644 11.7865 24.6329 11.7889H24.328C24.2965 11.7889 24.282 11.8035 24.282 11.8349L24.2941 13.2531L24.2723 13.1611L23.7471 11.8398C23.735 11.8083 23.7181 11.7938 23.6963 11.7938L23.2921 11.7986C23.2607 11.7986 23.2461 11.8131 23.2461 11.8446L23.2679 14.0589C23.2679 14.0904 23.2824 14.1049 23.3139 14.1025H23.6189C23.6503 14.1025 23.6648 14.088 23.6648 14.0565L23.6527 12.6287L24.2457 14.0517C24.2505 14.0638 24.2578 14.0735 24.2699 14.0831Z" fill="#203F5B"/>
<path d="M20.2936 14.797C20.3057 14.8261 20.3226 14.8358 20.3444 14.8261H20.3468L20.6469 14.7099C20.6711 14.7002 20.6784 14.6809 20.6663 14.6518L20.2984 13.7032L20.4823 12.3552C20.4847 12.3407 20.4799 12.3286 20.463 12.3237C20.446 12.3189 20.4315 12.3189 20.4194 12.3237L20.1072 12.4447C20.0951 12.4496 20.0854 12.4593 20.0782 12.4714C20.0709 12.4835 20.0636 12.498 20.0636 12.5101L19.9789 13.4321L19.294 12.8078C19.2843 12.8005 19.2722 12.7932 19.2577 12.7884C19.2432 12.7836 19.2311 12.7836 19.219 12.7884L18.9068 12.9094C18.8947 12.9142 18.8826 12.9239 18.8753 12.9384C18.868 12.953 18.8705 12.9651 18.8826 12.9747L19.9257 13.8484L20.2936 14.797Z" fill="#203F5B"/>
<path d="M32.5858 25.3024C32.5858 25.3338 32.6028 25.3508 32.6343 25.3508L32.6415 25.3411H34.0888C34.1203 25.3411 34.1372 25.3242 34.1372 25.2927V24.9684C34.1372 24.9369 34.1203 24.92 34.0888 24.92H33.0142V24.4529C33.0142 24.4433 33.0166 24.436 33.0166 24.436L33.0263 24.4263L33.0844 24.3707C33.0875 24.3676 33.0911 24.3653 33.0941 24.3638C33.0982 24.3618 33.1014 24.361 33.1014 24.361H33.8177C33.8226 24.361 33.8274 24.3604 33.8323 24.3598L33.8386 24.359C33.8413 24.3588 33.844 24.3586 33.8468 24.3586C33.8661 24.3537 33.8855 24.344 33.9049 24.3247L34.1033 24.1311C34.1227 24.1117 34.1348 24.0948 34.1348 24.0754C34.1372 24.0585 34.1372 24.0415 34.1372 24.0415V23.2405C34.1372 23.2389 34.1369 23.2367 34.1366 23.2339C34.1359 23.2281 34.1348 23.2195 34.1348 23.2066C34.1324 23.1873 34.1227 23.1703 34.1033 23.151L33.9073 22.9549C33.8831 22.9283 33.8516 22.9162 33.8177 22.9162H32.9174C32.8981 22.9162 32.8835 22.9186 32.8714 22.9211C32.8593 22.9259 32.8448 22.9356 32.8254 22.9549L32.6294 23.151C32.6028 23.1752 32.5907 23.2066 32.5907 23.2405V23.6035C32.5907 23.618 32.5979 23.6301 32.6052 23.6398C32.6125 23.6495 32.6246 23.6543 32.6391 23.6543H32.9634C32.9755 23.6543 32.9876 23.6495 32.9973 23.6398C33.007 23.6301 33.0118 23.618 33.0118 23.6035V23.3397H33.6604C33.6701 23.3397 33.6846 23.3494 33.6846 23.3494L33.7403 23.4075C33.7475 23.4172 33.75 23.4317 33.75 23.4317V23.8673C33.75 23.8794 33.7403 23.8963 33.7403 23.8963L33.6919 23.9447H32.915C32.8956 23.9447 32.8811 23.9472 32.869 23.9496C32.8569 23.9544 32.8424 23.9641 32.823 23.9835L32.627 24.1795C32.6197 24.1892 32.6101 24.2013 32.6004 24.2134C32.5907 24.2279 32.5858 24.2448 32.5858 24.2714V25.3024Z" fill="#203F5B"/>
<path fill-rule="evenodd" clip-rule="evenodd" d="M36.5816 25.3412C36.5961 25.3364 36.6082 25.3267 36.6227 25.3122L36.6252 25.3146L36.8212 25.1186C36.8405 25.0992 36.8527 25.0823 36.8551 25.0653C36.8599 25.0508 36.8599 25.0314 36.8599 25.0314V24.3805C36.8599 24.3611 36.8575 24.3466 36.8502 24.3369C36.843 24.3272 36.8333 24.3151 36.8212 24.3006L36.7171 24.1651L36.8212 24.0247C36.8309 24.0126 36.8405 24.0005 36.8478 23.986C36.8551 23.9715 36.8599 23.9545 36.8599 23.9328V23.2406C36.8599 23.2376 36.859 23.2319 36.8577 23.224C36.8569 23.2191 36.856 23.2132 36.8551 23.2067C36.8502 23.1898 36.8405 23.1729 36.8212 23.1535L36.6252 22.9575C36.6034 22.9381 36.5864 22.926 36.5695 22.9236C36.555 22.9188 36.5356 22.9188 36.5356 22.9188H35.6619C35.6498 22.9188 35.6353 22.9212 35.6208 22.9236C35.6062 22.9284 35.5917 22.9381 35.5724 22.9575L35.3763 23.1535C35.3666 23.1632 35.357 23.1753 35.3497 23.1874C35.3424 23.1995 35.3376 23.2164 35.3376 23.2406V23.9328C35.3376 23.9473 35.34 23.9594 35.3424 23.9691C35.3473 23.9787 35.357 23.9957 35.3763 24.0223L35.478 24.1627L35.3763 24.2982L35.369 24.307C35.3638 24.3133 35.3591 24.319 35.3549 24.3238C35.3521 24.327 35.3496 24.3298 35.3473 24.3321C35.34 24.3417 35.3376 24.3514 35.3376 24.3659V25.0314C35.3376 25.0435 35.34 25.0581 35.3424 25.0702C35.3473 25.0823 35.357 25.0968 35.3763 25.1161L35.5724 25.3122C35.5845 25.3291 35.599 25.3388 35.6135 25.3436C35.6256 25.3509 35.6474 25.3509 35.6474 25.3509H36.5477C36.5534 25.3509 36.5622 25.3479 36.5728 25.3442L36.5816 25.3412ZM36.434 23.8408C36.434 23.8505 36.4243 23.865 36.4243 23.865H36.4219L36.3734 23.9134H35.8144L35.766 23.865C35.7587 23.8577 35.7563 23.8408 35.7563 23.8408V23.4366C35.7563 23.427 35.766 23.4124 35.766 23.4124L35.8265 23.3544C35.8337 23.3471 35.8483 23.3447 35.8483 23.3447H36.342C36.3517 23.3447 36.3662 23.3544 36.3662 23.3544L36.4243 23.4124C36.4315 23.4197 36.434 23.4342 36.434 23.4342V23.8408ZM36.434 24.8572C36.434 24.8669 36.4243 24.8814 36.4243 24.8814L36.3759 24.9298H35.8168L35.7684 24.8814C35.7611 24.8766 35.7587 24.8572 35.7587 24.8572V24.4579C35.7587 24.4434 35.7684 24.4264 35.7684 24.4264L35.8289 24.3684C35.8337 24.3611 35.8555 24.3587 35.8555 24.3587H36.342C36.3517 24.3587 36.3662 24.3684 36.3662 24.3684L36.4243 24.4264C36.4315 24.4337 36.434 24.4434 36.434 24.4579V24.8572Z" fill="#203F5B"/>
<path d="M11.8348 25.3508C11.8034 25.3508 11.7864 25.3339 11.7864 25.3024V23.3422H11.5904C11.5904 23.3422 11.5686 23.3349 11.5589 23.3228C11.5492 23.3107 11.5517 23.2938 11.5613 23.2768L11.7259 22.9671C11.7404 22.938 11.7574 22.9211 11.7792 22.9211H12.1591C12.1591 22.9211 12.1809 22.9259 12.193 22.9356C12.2051 22.9453 12.2075 22.9574 12.2075 22.9695V25.3C12.2075 25.3145 12.2027 25.3266 12.193 25.3339C12.1833 25.3436 12.1712 25.3484 12.1591 25.3484H11.8348V25.3508Z" fill="#203F5B"/>
<path fill-rule="evenodd" clip-rule="evenodd" d="M14.6592 25.3459C14.6713 25.3435 14.6883 25.3338 14.71 25.312L14.7076 25.3169L14.9037 25.1208C14.9303 25.0942 14.9424 25.0628 14.9424 25.0265V23.2453C14.9424 23.2284 14.94 23.2138 14.9351 23.1993C14.9303 23.1848 14.9206 23.1703 14.9037 23.1533L14.7076 22.9573C14.6858 22.9355 14.6641 22.9234 14.6423 22.9234H13.7444C13.7274 22.9234 13.7105 22.9259 13.6984 22.9307C13.6863 22.9355 13.6718 22.9452 13.6548 22.9622L13.4588 23.1533C13.4394 23.1727 13.4297 23.1921 13.4249 23.2066C13.4201 23.2211 13.4201 23.2405 13.4201 23.2405V24.0681C13.4201 24.0851 13.4201 24.0996 13.4249 24.1117C13.4297 24.1238 13.4394 24.1383 13.4588 24.1577L13.6548 24.3561C13.6718 24.3706 13.6863 24.3827 13.7032 24.3851C13.7178 24.39 13.7444 24.39 13.7444 24.39H14.4608L14.5092 24.4384C14.5164 24.4505 14.5188 24.4626 14.5188 24.4626V24.8304C14.5188 24.8401 14.5092 24.8546 14.5092 24.8546L14.4511 24.9127C14.4462 24.92 14.4269 24.9224 14.4269 24.9224H13.8412V24.661C13.8412 24.6465 13.8363 24.6344 13.8267 24.6247C13.8194 24.615 13.8073 24.6102 13.7928 24.6102H13.4685C13.4564 24.6102 13.4443 24.615 13.4346 24.6247C13.4249 24.6344 13.4201 24.6465 13.4201 24.661V25.024C13.4201 25.0434 13.4225 25.0603 13.4273 25.0724C13.4322 25.0845 13.4419 25.0966 13.4588 25.1136L13.6548 25.3096C13.679 25.3362 13.7105 25.3483 13.7444 25.3483H14.6181C14.6326 25.3483 14.6471 25.3483 14.6592 25.3459ZM14.5213 23.8721C14.5213 23.8818 14.5116 23.8963 14.5116 23.8963H14.5092L14.4511 23.9544C14.4462 23.9616 14.4269 23.9641 14.4269 23.9641H13.9332C13.9235 23.9641 13.9114 23.9568 13.9114 23.9568L13.8533 23.9011C13.846 23.8939 13.8436 23.8769 13.8436 23.8769V23.4147C13.8436 23.405 13.8533 23.3905 13.8533 23.3905L13.9017 23.3421H14.4656L14.5116 23.3881C14.5188 23.3953 14.5213 23.4123 14.5213 23.4123V23.8721Z" fill="#203F5B"/>
<path fill-rule="evenodd" clip-rule="evenodd" d="M21.615 35.9602C21.5859 35.9554 21.5714 35.9385 21.5762 35.9094L21.903 33.758C21.9078 33.729 21.9247 33.7144 21.9538 33.7193L22.9751 33.8742C22.9896 33.8742 23.0042 33.8814 23.0163 33.8863C23.0284 33.8911 23.0405 33.9032 23.055 33.9201L23.2075 34.1283C23.222 34.15 23.2292 34.167 23.2292 34.1839V34.2178L23.1034 35.043C23.0985 35.0745 23.0816 35.1011 23.055 35.1205L22.8468 35.2729C22.8347 35.2826 22.8226 35.2875 22.8081 35.2923C22.7936 35.2971 22.7767 35.2971 22.7573 35.2923L22.0772 35.1882L21.9586 35.9651C21.9538 35.9941 21.9368 36.0086 21.9078 36.0038L21.6125 35.9578L21.615 35.9602ZM22.7331 34.8301C22.7331 34.8301 22.7404 34.8228 22.7404 34.818L22.8154 34.3243C22.8154 34.3243 22.8154 34.3122 22.8105 34.3074L22.7621 34.2444C22.7621 34.2444 22.7592 34.2422 22.7557 34.2398C22.7529 34.2379 22.7498 34.2358 22.7476 34.2347L22.237 34.1573L22.1377 34.8035L22.6484 34.8809C22.6484 34.8809 22.6629 34.8809 22.6678 34.8785L22.7307 34.8325L22.7331 34.8301Z" fill="#203F5B"/>
<path d="M23.6892 36.1757C23.6989 36.183 23.7207 36.1878 23.7207 36.1878L23.7182 36.1854L24.0159 36.1902C24.028 36.1926 24.0377 36.1878 24.0474 36.1805C24.0571 36.1733 24.0619 36.1539 24.0619 36.1539L24.0668 35.803C24.0692 35.774 24.0547 35.757 24.0232 35.757L23.7255 35.7522C23.6965 35.7498 23.6795 35.7667 23.6795 35.7957L23.6747 36.1466C23.6747 36.1587 23.6795 36.1684 23.6892 36.1757Z" fill="#203F5B"/>
<path d="M25.5042 36.1199C25.4752 36.1248 25.4558 36.1127 25.451 36.0836L25.1 33.9346C25.0952 33.9056 25.1073 33.8862 25.1388 33.8814L26.3029 33.6926C26.3319 33.6878 26.3513 33.6999 26.3561 33.7314L26.4045 34.0266C26.4045 34.0266 26.4045 34.046 26.3997 34.0581C26.3948 34.0702 26.3876 34.0774 26.3779 34.0774L25.5454 34.2129L25.6325 34.755L26.2859 34.6486C26.315 34.6437 26.3343 34.6558 26.3392 34.6873L26.3876 34.9825C26.3924 35.0116 26.3803 35.0309 26.3513 35.0358L25.6978 35.1422L25.8406 36.0231C25.8455 36.0522 25.8334 36.0715 25.8019 36.0764L25.5066 36.1248L25.5042 36.1199Z" fill="#203F5B"/>
<path d="M21.8837 14.3444C21.8837 14.3444 21.8619 14.3444 21.8498 14.3396C21.8377 14.3348 21.8329 14.3251 21.8304 14.3154L21.7578 13.9669C21.7506 13.9379 21.7627 13.9185 21.7941 13.9113L22.0918 13.8483C22.1209 13.8411 22.1402 13.8532 22.1475 13.8846L22.2201 14.2331C22.2201 14.2331 22.2201 14.2549 22.2104 14.2646C22.2032 14.2743 22.1935 14.2791 22.1814 14.2815L21.8837 14.3444Z" fill="#203F5B"/>
<path d="M25.7872 14.2476C25.7872 14.2476 25.7679 14.2404 25.7582 14.2307C25.7509 14.221 25.7461 14.2113 25.7485 14.1992L25.8163 13.8483C25.8211 13.8168 25.8405 13.8047 25.8695 13.812L26.1672 13.8701C26.1987 13.8749 26.2108 13.8943 26.2035 13.9233L26.1357 14.2742C26.1357 14.2742 26.1261 14.2936 26.1164 14.2984C26.1067 14.3033 26.0946 14.3057 26.0825 14.3033L25.7848 14.2476H25.7872Z" fill="#203F5B"/>
<path d="M27.179 14.5285C27.1693 14.5575 27.1765 14.5769 27.2056 14.589L27.2032 14.5866L28.3189 15.027C28.3479 15.0367 28.3673 15.0294 28.3794 15.0004L28.4907 14.7172C28.5004 14.6882 28.4931 14.6688 28.4641 14.6567L27.6727 14.3446L27.8784 13.8242L28.5028 14.0711C28.5125 14.0759 28.5246 14.0759 28.5367 14.0711C28.5488 14.0687 28.5585 14.059 28.5633 14.0469L28.6747 13.7637C28.6819 13.7516 28.6795 13.7395 28.6747 13.7274C28.6698 13.7153 28.6505 13.7032 28.6505 13.7032L28.026 13.4564L28.2318 12.9361L29.0232 13.2483C29.0353 13.2555 29.0474 13.2531 29.0595 13.2483C29.0716 13.2434 29.0837 13.2241 29.0837 13.2241L29.195 12.9409C29.2047 12.9119 29.1974 12.8925 29.1684 12.8804L28.0527 12.44C28.0236 12.4303 28.0043 12.4376 27.9922 12.4666L27.179 14.5285Z" fill="#203F5B"/>
</svg>
