<svg width="48" height="48" viewBox="0 0 48 48" fill="none" xmlns="http://www.w3.org/2000/svg">
<path d="M6.26612 20.9222C6.26128 20.9512 6.2395 20.9633 6.20077 20.956L4.935 20.7213L3.3062 21.2658C3.28684 21.2731 3.27232 21.2658 3.26264 21.2489C3.25296 21.2295 3.24812 21.2126 3.25054 21.1956L3.32799 20.7818C3.3304 20.7649 3.34009 20.7503 3.35461 20.7407C3.35863 20.7373 3.36265 20.7343 3.36673 20.7316L3.36917 20.73L3.37176 20.7284C3.37393 20.7271 3.37613 20.7258 3.37836 20.7246C3.38063 20.7234 3.38294 20.7222 3.38528 20.721L3.39123 20.7182L3.40059 20.714L4.52599 20.3922L3.58937 19.6879C3.58937 19.6879 3.56516 19.6637 3.55549 19.6468C3.5458 19.6298 3.54338 19.6153 3.5458 19.5984L3.62325 19.1846C3.62567 19.1676 3.63535 19.1531 3.65229 19.1386C3.66923 19.1241 3.68376 19.1241 3.69828 19.1386L5.02455 20.23L6.29032 20.4648C6.32904 20.472 6.34598 20.4914 6.33873 20.5253L6.26612 20.9246V20.9222Z" fill="white"/>
<path fill-rule="evenodd" clip-rule="evenodd" d="M7.15674 17.6334C7.17852 17.5705 7.18094 17.5221 7.164 17.4858V17.4834L7.01637 17.1857C7.00669 17.1688 6.99701 17.1518 6.98491 17.1397C6.97281 17.1252 6.95344 17.1155 6.92682 17.1058L4.90111 16.4065C4.88175 16.3992 4.85996 16.3992 4.8406 16.3992C4.82124 16.4016 4.80188 16.4064 4.78494 16.4161L4.48725 16.5613C4.46789 16.5734 4.45095 16.5855 4.43885 16.6025C4.42675 16.6194 4.41707 16.6339 4.41222 16.6509L4.06129 17.6697C4.05404 17.6939 4.04919 17.7133 4.04919 17.7302C4.04974 17.734 4.05041 17.7379 4.05123 17.7418C4.05222 17.7464 4.05342 17.7512 4.05489 17.7561C4.05762 17.7652 4.06126 17.7749 4.06613 17.7859L4.20893 18.0884C4.22103 18.1126 4.23555 18.1295 4.25007 18.1392C4.26459 18.1489 4.28879 18.1586 4.28879 18.1586L6.33387 18.8652L6.33609 18.8659C6.34352 18.8685 6.35509 18.8725 6.3726 18.8725C6.39196 18.8749 6.41374 18.8701 6.43794 18.8579L6.74047 18.7103C6.76467 18.6982 6.78161 18.6861 6.79129 18.6692C6.80097 18.6522 6.81065 18.6329 6.81065 18.6329L7.15674 17.6334ZM6.57347 17.5148C6.579 17.517 6.58453 17.5218 6.58891 17.5263C6.59088 17.5283 6.59261 17.5303 6.59401 17.5319C6.5963 17.5347 6.59767 17.5366 6.59767 17.5366L6.59525 17.5414L6.63156 17.6165L6.39922 18.2868L6.32419 18.3231C6.3223 18.3236 6.31995 18.3239 6.31738 18.324C6.31458 18.3242 6.31153 18.3242 6.30856 18.3242C6.3057 18.3241 6.30291 18.3239 6.30049 18.3238L6.29614 18.3234L6.29273 18.3231L4.67119 17.7617C4.65909 17.7568 4.64699 17.7399 4.64699 17.7399L4.60826 17.6504C4.60584 17.6407 4.60826 17.6189 4.60826 17.6189L4.81398 17.0235C4.8164 17.0163 4.83334 17.0042 4.83334 17.0042L4.92047 16.9582C4.92773 16.9534 4.93499 16.9534 4.93983 16.9534H4.95193L6.57347 17.5148Z" fill="white"/>
<path fill-rule="evenodd" clip-rule="evenodd" d="M8.35964 15.0729C8.35238 15.0875 8.34028 15.0996 8.32092 15.1044C8.30398 15.1117 8.28703 15.1141 8.27251 15.1117L7.181 15.0028L6.96318 15.4166L7.86108 15.8909C7.89496 15.9103 7.90464 15.9345 7.88528 15.9708L7.70618 16.3096C7.68682 16.3435 7.66262 16.3531 7.62632 16.3338L5.15286 15.027C5.11898 15.0076 5.1093 14.9834 5.12866 14.9471L5.74824 13.7734C5.74824 13.7734 5.75229 13.7669 5.75711 13.76C5.76062 13.755 5.76454 13.7498 5.7676 13.7468C5.77486 13.7371 5.78454 13.7298 5.79422 13.7201C5.8039 13.7105 5.81842 13.7032 5.83778 13.6983L6.15483 13.6015C6.18387 13.5919 6.21292 13.5919 6.24196 13.6015C6.25406 13.604 6.26374 13.6088 6.27342 13.6137L7.21004 14.1098C7.25361 14.134 7.28265 14.1654 7.29475 14.2066L7.3964 14.5405L8.51212 14.6543C8.52664 14.6543 8.53874 14.6639 8.54842 14.6761C8.5581 14.6881 8.55568 14.7051 8.54358 14.7293L8.35722 15.0802L8.35964 15.0729ZM6.79556 14.4647C6.79221 14.46 6.78815 14.4555 6.78408 14.4534L6.22744 14.1582C6.22744 14.1582 6.21291 14.1533 6.20565 14.1582L6.11369 14.1896C6.10278 14.1951 6.09596 14.2005 6.09222 14.205C6.09099 14.2065 6.09008 14.2078 6.08948 14.209L5.78212 14.7922L6.52512 15.1843L6.83249 14.601C6.83249 14.601 6.83307 14.5995 6.8338 14.597L6.83473 14.5934L6.83559 14.5894C6.83675 14.5832 6.83728 14.5755 6.83491 14.5696L6.80587 14.48L6.80345 14.4776C6.80345 14.4776 6.80019 14.4711 6.79556 14.4647Z" fill="white"/>
<path d="M9.81676 12.8805C9.83612 12.8756 9.85064 12.8684 9.86032 12.8539L9.8579 12.8514L10.1217 12.4957C10.1386 12.4739 10.1411 12.4545 10.129 12.4376C10.1169 12.4207 10.0975 12.4086 10.0709 12.4037L8.26298 12.0456L7.86123 10.7871C7.85397 10.7605 7.83945 10.7484 7.81766 10.7508C7.79588 10.7533 7.77652 10.7678 7.75958 10.7896L7.45221 11.2058C7.44011 11.2203 7.43769 11.2348 7.44011 11.2494C7.44253 11.2639 7.44737 11.2808 7.45463 11.3002L7.88543 12.5296L7.01899 11.8883C6.98753 11.8641 6.96091 11.8689 6.93671 11.9004L6.70921 12.2101C6.68501 12.2416 6.68985 12.2682 6.72131 12.2924L8.96968 13.9574C9.00115 13.9816 9.02777 13.9768 9.05197 13.9453L9.27947 13.6355C9.30367 13.6041 9.29883 13.5774 9.26737 13.5533L8.58245 13.0475L8.4324 12.5828L9.76593 12.8805C9.78045 12.8853 9.7974 12.8853 9.81676 12.8805Z" fill="white"/>
<path d="M11.7385 10.758C11.7385 10.7822 11.7337 10.8016 11.724 10.8209C11.7152 10.8363 11.7045 10.8496 11.6954 10.861L11.6925 10.8645L10.9278 11.6244C10.906 11.6462 10.889 11.6583 10.8745 11.6631C10.86 11.668 10.8431 11.668 10.8189 11.668H10.4849C10.4582 11.668 10.4365 11.668 10.4219 11.6583C10.4074 11.651 10.3953 11.6413 10.3856 11.6316L10.0855 11.3291C10.0855 11.3291 10.071 11.3049 10.0686 11.2904C10.0686 11.2735 10.0734 11.259 10.0855 11.2469L10.359 10.9758C10.359 10.9758 10.3856 10.9589 10.4026 10.9589C10.4195 10.9589 10.4316 10.9661 10.4413 10.9758L10.6543 11.1888L11.1843 10.6612C11.1843 10.6612 11.1856 10.658 11.1868 10.6533C11.1873 10.6513 11.1878 10.6491 11.1882 10.6468L11.1887 10.6436C11.189 10.6415 11.1891 10.6392 11.1891 10.637V10.5402C11.1891 10.5402 11.1891 10.5209 11.1795 10.5112L10.8358 10.1651C10.8358 10.1651 10.8189 10.153 10.8068 10.153H10.7124C10.7124 10.153 10.6906 10.1578 10.6833 10.1651L10.0662 10.7774C10.0662 10.7774 10.0492 10.7919 10.0323 10.7992C10.0153 10.8088 9.99356 10.8137 9.96694 10.8113H9.63295C9.60875 10.8113 9.58939 10.8088 9.57245 10.7992C9.55551 10.7895 9.54098 10.7798 9.52888 10.7677L8.86575 10.1022C8.86575 10.1022 8.85755 10.0919 8.84915 10.0801C8.84703 10.0771 8.8449 10.074 8.84288 10.071C8.84062 10.0676 8.83849 10.0642 8.8367 10.061C8.82702 10.0441 8.82218 10.0199 8.82218 9.99327V9.66173C8.82218 9.64237 8.8246 9.62542 8.82944 9.61092C8.83428 9.5964 8.84639 9.57945 8.87059 9.55526L9.63537 8.79537C9.63537 8.79537 9.66199 8.77357 9.68378 8.7639C9.70314 8.75421 9.7225 8.74937 9.74186 8.74937H10.0734C10.1073 8.75179 10.1315 8.75663 10.1436 8.76632C10.1581 8.77357 10.1702 8.78326 10.1823 8.79537L10.4921 9.10514C10.5187 9.13175 10.5187 9.16078 10.4921 9.18741L10.2186 9.45846C10.192 9.48507 10.163 9.48507 10.1364 9.45846L9.90886 9.23097L9.38851 9.74886C9.38851 9.74886 9.37641 9.76822 9.37399 9.78031V9.87711C9.37399 9.87711 9.37399 9.89647 9.38125 9.90616L9.7225 10.2498C9.7225 10.2498 9.73944 10.2619 9.75154 10.2619H9.85077C9.85077 10.2619 9.87255 10.2571 9.88223 10.2474L10.4824 9.64964C10.5139 9.61817 10.5502 9.60365 10.5889 9.60365H10.9205C10.9665 9.60606 11.0028 9.62059 11.0294 9.64964L11.6901 10.3127C11.7192 10.3418 11.7337 10.3781 11.7337 10.4216V10.7556L11.7385 10.758Z" fill="white"/>
<path d="M13.7419 9.13419C13.7661 9.16563 13.7928 9.16805 13.8242 9.14627L14.134 8.92122C14.1655 8.89701 14.1703 8.87039 14.1461 8.83892L12.5004 6.57621C12.4762 6.54474 12.4495 6.5399 12.4181 6.5641L12.1083 6.78917C12.0768 6.81336 12.072 6.83997 12.0962 6.87144L12.7714 7.80074L12.0817 8.30169L11.4064 7.3724C11.3822 7.34093 11.3556 7.33851 11.3241 7.36029L11.0144 7.58536C10.9829 7.60955 10.9805 7.63617 11.0023 7.66764L12.648 9.93038C12.6722 9.96183 12.6988 9.96427 12.7303 9.94246L13.0401 9.71742C13.0715 9.69322 13.0764 9.66659 13.0522 9.63514L12.3769 8.70584L13.0667 8.20489L13.7419 9.13419Z" fill="white"/>
<path d="M15.095 8.35484C15.0611 8.3742 15.0345 8.36695 15.0151 8.33307L13.655 5.88883C13.6356 5.85494 13.6429 5.82833 13.6767 5.80897L14.0131 5.62262C14.047 5.60326 14.0737 5.61053 14.093 5.64442L15.4532 8.08866C15.4725 8.12252 15.4653 8.14915 15.4314 8.16851L15.095 8.35484Z" fill="white"/>
<path fill-rule="evenodd" clip-rule="evenodd" d="M17.6583 7.12313C17.6777 7.13038 17.6946 7.13038 17.7091 7.12313L17.7019 7.11827L18.0698 6.96825C18.0915 6.95855 18.1061 6.94403 18.1061 6.92953C18.1061 6.915 18.0915 6.8908 18.0915 6.8908L17.3074 6.08976L17.4429 5.7679C17.4599 5.72677 17.4599 5.68319 17.4405 5.63722L17.0387 4.65709C17.0339 4.64742 17.0291 4.63773 17.0218 4.62806C17.0049 4.60387 16.9831 4.58692 16.954 4.57481L16.6491 4.44654C16.6321 4.43929 16.6152 4.43687 16.6031 4.43687L16.5916 4.4391C16.5833 4.44059 16.5751 4.44171 16.5668 4.44171C16.5634 4.44256 16.5584 4.44403 16.5535 4.44557C16.5444 4.44837 16.5353 4.4514 16.5353 4.4514L15.3059 4.95477C15.2696 4.97171 15.2599 4.99591 15.2744 5.03221L16.3369 7.62164C16.3538 7.65794 16.378 7.66764 16.4143 7.65311L16.7701 7.50789C16.8064 7.49098 16.8161 7.46676 16.8016 7.43045L16.4167 6.49149L16.85 6.31483L17.6172 7.09649C17.6214 7.10182 17.6266 7.10621 17.6326 7.11007C17.6401 7.115 17.6488 7.11905 17.6583 7.12313ZM16.8979 5.64491C16.8981 5.64669 16.8981 5.64854 16.8981 5.6504C16.898 5.65948 16.896 5.66869 16.896 5.66869V5.6711L16.8596 5.75821C16.8587 5.76017 16.8572 5.76219 16.8555 5.76419C16.8543 5.76566 16.8529 5.76712 16.8515 5.76854C16.8451 5.77481 16.8379 5.77999 16.8379 5.77999L16.228 6.03167L15.9085 5.25484L16.5184 5.00316C16.5232 5.00074 16.5329 5.00074 16.5499 5.00316L16.6418 5.03705C16.6491 5.04188 16.6564 5.05399 16.6564 5.05399L16.896 5.63722C16.8964 5.63802 16.8967 5.63892 16.897 5.63988C16.8974 5.64142 16.8977 5.64312 16.8979 5.64491Z" fill="white"/>
<path d="M18.9603 6.70443C18.9216 6.71412 18.8998 6.69959 18.8901 6.66087L18.2125 3.94559C18.2028 3.90687 18.2173 3.88509 18.256 3.8754L19.7275 3.50755C19.7662 3.49788 19.788 3.51239 19.7977 3.55111L19.8897 3.92381C19.8921 3.93831 19.8897 3.95042 19.8824 3.96737C19.8751 3.98189 19.863 3.99156 19.8461 3.9964L18.8054 4.25536L18.9773 4.94022L19.8001 4.73451C19.8085 4.73311 19.8161 4.73333 19.8243 4.73519C19.8268 4.73575 19.8294 4.73648 19.8321 4.73734C19.8357 4.73853 19.8396 4.74002 19.8437 4.74178C19.8582 4.74903 19.8679 4.76114 19.8727 4.77809L19.9647 5.15077C19.9695 5.16771 19.9647 5.18224 19.9574 5.19674C19.9478 5.21126 19.9357 5.21851 19.9236 5.22337L19.1007 5.42906L19.2725 6.11395L20.3132 5.85499C20.3519 5.84532 20.3737 5.85982 20.3834 5.89854L20.4754 6.27125C20.485 6.30997 20.4705 6.33175 20.4318 6.34141L18.9603 6.70926V6.70443Z" fill="white"/>
<path fill-rule="evenodd" clip-rule="evenodd" d="M24.3527 5.9857C24.3697 5.97843 24.3866 5.96634 24.4036 5.9494L24.406 5.95182L24.6383 5.71707C24.6601 5.6953 24.6722 5.67352 24.677 5.65416C24.6819 5.6348 24.6819 5.62027 24.6819 5.613L24.677 4.78778H24.9868C25.0256 4.78778 25.0449 4.76842 25.0425 4.7297V4.34491C25.0425 4.30619 25.0231 4.28683 24.9844 4.28683L23.4597 4.29649L23.4016 4.23841C23.3919 4.23358 23.3871 4.22391 23.3846 4.20938V3.7036C23.3846 3.69632 23.3968 3.6794 23.3968 3.6794L23.4669 3.6068C23.4742 3.59952 23.4839 3.59469 23.4911 3.59469L24.1664 3.58985V3.91173C24.1664 3.95045 24.1833 3.96981 24.2172 3.96737H24.6262C24.6577 3.96737 24.6722 3.94801 24.6698 3.90929V3.46644C24.6698 3.45916 24.6674 3.44464 24.6625 3.42528C24.6577 3.40592 24.6432 3.38414 24.6214 3.36236L24.3866 3.13004C24.3624 3.10826 24.3406 3.09618 24.3237 3.09132C24.3067 3.08648 24.2922 3.08648 24.2777 3.08648L23.2298 3.09373C23.2177 3.09373 23.1983 3.09618 23.1765 3.10584C23.1547 3.11554 23.1378 3.1252 23.1233 3.13973L22.8909 3.37447C22.8691 3.39625 22.857 3.41803 22.8522 3.43739C22.8502 3.44539 22.849 3.45382 22.8483 3.46095L22.8479 3.46632L22.8476 3.47154C22.8474 3.47586 22.8474 3.47852 22.8474 3.47852L22.8522 4.35457C22.8522 4.35775 22.8522 4.36085 22.8523 4.36392L22.8527 4.37208C22.853 4.37938 22.8537 4.38631 22.8546 4.39271C22.8552 4.39703 22.8559 4.40113 22.8567 4.40492C22.8575 4.4086 22.8584 4.41202 22.8595 4.4151C22.8619 4.4296 22.8764 4.44654 22.8982 4.4659L23.0192 4.5869L22.8982 4.70792C22.8667 4.73695 22.8522 4.76842 22.8522 4.79503L22.857 5.62269C22.857 5.66141 22.8716 5.6953 22.903 5.72674L23.1378 5.95907C23.1547 5.97843 23.1717 5.99054 23.1886 5.99537C23.2056 6.0002 23.2298 6.00262 23.2298 6.00262L24.3116 5.99537C24.3213 5.99537 24.3358 5.99295 24.3527 5.9857ZM23.4984 4.79503L24.1712 4.79019L24.1761 5.492L23.4669 5.49684L23.4089 5.43875C23.3992 5.4315 23.3943 5.42183 23.3919 5.40489V4.92572C23.3919 4.91961 23.3935 4.9129 23.3955 4.9068C23.3991 4.89591 23.404 4.887 23.404 4.887L23.4742 4.80714C23.4767 4.80462 23.4804 4.8024 23.4841 4.80057C23.4911 4.7971 23.4984 4.79503 23.4984 4.79503Z" fill="white"/>
<path d="M28.2977 6.50836C28.2807 6.50352 28.2662 6.49625 28.2541 6.47933C28.242 6.4648 28.2347 6.44786 28.2323 6.43333L27.9056 4.51424L27.5184 6.27603C27.5111 6.31475 27.4869 6.32928 27.4482 6.31959L27.073 6.23731C27.0343 6.22765 27.0198 6.20584 27.0295 6.16712L27.6297 3.4349C27.6394 3.39618 27.6611 3.38167 27.6999 3.39134L28.1984 3.50025C28.2251 3.50509 28.242 3.52928 28.2468 3.57042L28.5203 5.34432V5.4629L28.9051 3.71322C28.9124 3.6745 28.9366 3.65997 28.9753 3.66966L29.3505 3.75194C29.3892 3.75919 29.4037 3.78338 29.394 3.8221L28.7938 6.55433C28.7865 6.59305 28.7623 6.60758 28.7236 6.59791L28.3001 6.50352L28.2977 6.50836Z" fill="white"/>
<path fill-rule="evenodd" clip-rule="evenodd" d="M30.8431 7.33128C30.9061 7.35548 30.9545 7.36031 30.9908 7.34337V7.33612L31.2933 7.19576L31.2968 7.19422C31.3005 7.19256 31.3042 7.19078 31.3078 7.18888C31.3122 7.18658 31.3165 7.18412 31.3206 7.18148C31.3275 7.17704 31.3339 7.1721 31.3393 7.16671C31.3514 7.15704 31.3635 7.13768 31.3732 7.11104L32.1283 5.10726C32.138 5.0879 32.1404 5.06612 32.138 5.04676C32.1355 5.0274 32.1307 5.00804 32.1234 4.9911L31.9879 4.69102C31.9782 4.66922 31.9661 4.6523 31.9492 4.64019C31.9322 4.62809 31.9153 4.61842 31.9008 4.61358L30.8916 4.23363C30.8673 4.22393 30.848 4.2191 30.831 4.2191C30.8247 4.2191 30.8175 4.22 30.8095 4.22184C30.7992 4.22423 30.7877 4.22816 30.7754 4.23363L30.4704 4.36915C30.4462 4.38126 30.4269 4.39576 30.4172 4.41029C30.4125 4.4159 30.4082 4.42298 30.4046 4.42955C30.399 4.43993 30.3954 4.44901 30.3954 4.44901L29.633 6.47459C29.6306 6.48184 29.6282 6.49395 29.6258 6.51331C29.6234 6.53267 29.6282 6.55445 29.6403 6.57865L29.7783 6.88599C29.7904 6.91019 29.8049 6.92955 29.8194 6.93924C29.8339 6.94891 29.8533 6.9586 29.8533 6.9586L30.8431 7.33128ZM30.9763 6.75289C30.9714 6.765 30.9545 6.77708 30.9545 6.77708L30.9496 6.77225L30.8746 6.80614L30.2091 6.55687L30.1752 6.48184C30.1728 6.47218 30.1752 6.45038 30.1752 6.45038L30.7802 4.84347C30.7851 4.8338 30.802 4.82169 30.802 4.82169L30.8916 4.78538C30.9012 4.78297 30.923 4.78538 30.923 4.78538L31.5135 5.00804C31.5163 5.00894 31.5196 5.01187 31.5228 5.01517C31.5254 5.01788 31.5279 5.02083 31.5297 5.02318L31.5315 5.02547L31.5329 5.0274L31.5765 5.11451C31.5776 5.11622 31.5785 5.11793 31.5791 5.11959L31.5798 5.12149L31.5803 5.12315L31.5806 5.1244C31.5813 5.12801 31.5813 5.13128 31.5813 5.13387V5.14598L30.9763 6.75289Z" fill="white"/>
<path fill-rule="evenodd" clip-rule="evenodd" d="M33.1979 8.50252C33.1834 8.49525 33.1737 8.48072 33.1664 8.4638C33.1592 8.44686 33.1592 8.42992 33.1592 8.41539L33.285 7.32638L32.876 7.1013L32.3871 7.98946C32.3678 8.02335 32.3411 8.0306 32.3073 8.01366L31.9708 7.82974C31.937 7.81038 31.9297 7.78377 31.9466 7.74989L33.2947 5.29837C33.3141 5.26451 33.3407 5.25724 33.3746 5.27418L34.5387 5.91307C34.5387 5.91307 34.5419 5.91512 34.5463 5.91803C34.5486 5.91956 34.5512 5.92132 34.5537 5.92315L34.5562 5.92491C34.5584 5.92655 34.5605 5.92818 34.5624 5.92975L34.5636 5.93082L34.5653 5.93243L34.5919 5.95904C34.6016 5.96873 34.6089 5.98326 34.6137 6.00262L34.7057 6.31964C34.7154 6.34869 34.7154 6.37772 34.7057 6.40675C34.7033 6.41886 34.6984 6.42855 34.6936 6.43822L34.1829 7.36751C34.1587 7.41107 34.1248 7.44012 34.0837 7.45221L33.7497 7.54901L33.619 8.66224C33.619 8.67677 33.6093 8.68885 33.5972 8.69854C33.5851 8.70821 33.5682 8.70579 33.544 8.69371L33.1955 8.50252H33.1979ZM33.8199 6.95611C33.8199 6.95611 33.8392 6.94642 33.8441 6.93675L34.149 6.38497C34.149 6.38497 34.1539 6.37047 34.1515 6.36319L34.1224 6.27125C34.1173 6.26104 34.1122 6.25443 34.1079 6.25055C34.1061 6.24889 34.1045 6.24774 34.103 6.24703L33.5246 5.93001L33.1204 6.66571L33.6989 6.98272C33.6989 6.98272 33.7182 6.99 33.7303 6.98514L33.8199 6.95853V6.95611Z" fill="white"/>
<path d="M34.5224 9.35687C34.5248 9.3714 34.5418 9.39076 34.5418 9.39076V9.3859L34.8685 9.62791C34.8951 9.64727 34.9169 9.64244 34.9362 9.6158L36.3424 7.71607L36.8167 8.06698C36.8264 8.07667 36.841 8.07667 36.8579 8.07667C36.8724 8.07667 36.8869 8.06939 36.8966 8.05489L37.1241 7.74513C37.1287 7.73827 37.1316 7.73141 37.1332 7.72428C37.1336 7.72262 37.1339 7.72096 37.1341 7.71927L37.1344 7.71707L37.1346 7.71402C37.1347 7.71119 37.1347 7.70828 37.1345 7.70533C37.1343 7.7033 37.1341 7.70123 37.1338 7.69913C37.1328 7.69298 37.1287 7.68551 37.1243 7.67894C37.1184 7.67005 37.112 7.66285 37.112 7.66285L35.7664 6.6682C35.7349 6.644 35.7083 6.64884 35.6841 6.68031L35.4566 6.99007C35.4324 7.02152 35.4372 7.04815 35.4687 7.07235L35.9382 7.42083L34.5321 9.32057C34.5224 9.33026 34.5224 9.34234 34.5224 9.35687Z" fill="white"/>
<path d="M36.9202 11.4404C36.8911 11.4138 36.8911 11.3847 36.9202 11.3581L37.7213 10.5353L37.1114 9.93995L36.3103 10.7628C36.2837 10.7918 36.2546 10.7918 36.228 10.7628L35.9521 10.4941C35.923 10.4675 35.923 10.4385 35.9521 10.4119L37.9052 8.40806C37.9318 8.37904 37.9608 8.37904 37.9875 8.40806L38.2634 8.67669C38.2924 8.70333 38.2924 8.73236 38.2634 8.75899L37.4623 9.5818L38.0722 10.1771L38.8733 9.35431C38.8999 9.32528 38.9289 9.32528 38.9556 9.35431L39.2315 9.62293C39.2605 9.64954 39.2605 9.6786 39.2315 9.70521L37.2784 11.709C37.2517 11.738 37.2227 11.738 37.1961 11.709L36.9202 11.4404Z" fill="white"/>
<path d="M38.4013 13.0523C38.3699 13.0765 38.365 13.1031 38.3868 13.1346L38.3892 13.137L39.2581 14.3785C39.2823 14.4099 39.3089 14.4148 39.3404 14.393L39.655 14.1728C39.6864 14.1486 39.6913 14.122 39.6695 14.0905L39.0548 13.212L39.6332 12.8079L40.1197 13.5024C40.1213 13.5046 40.1231 13.5066 40.1252 13.5085C40.1268 13.51 40.1286 13.5114 40.1305 13.5128C40.1372 13.5175 40.1457 13.5213 40.156 13.5242C40.1729 13.5266 40.1874 13.5242 40.202 13.5145L40.5166 13.2943C40.5311 13.2846 40.5408 13.2725 40.5408 13.2556C40.5417 13.2503 40.5406 13.2434 40.539 13.2368C40.536 13.2253 40.5311 13.2144 40.5311 13.2144L40.0446 12.5199L40.6231 12.1157L41.2378 12.9942C41.2475 13.0087 41.2596 13.0184 41.2765 13.0184C41.291 13.0208 41.3177 13.0087 41.3177 13.0087L41.6323 12.7885C41.6638 12.7643 41.6686 12.7377 41.6468 12.7062L40.778 11.4648C40.7538 11.4333 40.7271 11.4285 40.6957 11.4502L38.4013 13.0523Z" fill="white"/>
<path fill-rule="evenodd" clip-rule="evenodd" d="M40.3838 16.4596C40.3814 16.4547 40.3795 16.4495 40.3782 16.4441C40.3758 16.4334 40.3758 16.4216 40.379 16.4088C40.3805 16.4026 40.3823 16.3967 40.3844 16.3912C40.3889 16.3792 40.3949 16.3687 40.4032 16.3604L40.8267 15.9611L40.4032 15.131L39.8296 15.2399C39.8127 15.2423 39.7933 15.2399 39.7764 15.2326C39.7719 15.2307 39.7677 15.2285 39.7636 15.226C39.7589 15.223 39.7545 15.2196 39.7506 15.2159C39.7452 15.2108 39.7407 15.205 39.7376 15.1988L39.5731 14.8745C39.5675 14.8633 39.5647 14.8506 39.566 14.8366C39.5664 14.8324 39.5671 14.8281 39.5682 14.8237C39.5731 14.8043 39.5828 14.7922 39.5997 14.7898L42.4652 14.2574H42.5112C42.5239 14.2574 42.5338 14.2628 42.5411 14.2716C42.5435 14.2745 42.5457 14.2779 42.5475 14.2816L42.7726 14.7196C42.7847 14.7438 42.7774 14.7729 42.7484 14.8019L40.6307 16.8057C40.6186 16.8178 40.6041 16.8202 40.5871 16.8154C40.5785 16.8117 40.5711 16.8073 40.5646 16.802L40.5619 16.7996L40.5591 16.797C40.5552 16.7931 40.5517 16.7888 40.5484 16.7839L40.3838 16.4596ZM40.926 15.0342L42.0145 14.8291L41.2116 15.5957L40.926 15.0342Z" fill="white"/>
<path d="M41.2719 18.7853C41.2816 18.8023 41.2985 18.8168 41.3203 18.8265H41.3227L41.6228 18.9717C41.6615 18.991 41.7027 18.9959 41.7414 18.9814L42.6272 18.6813C42.6635 18.6692 42.6925 18.6425 42.7143 18.6038L42.862 18.3086C42.8789 18.2723 42.8813 18.2336 42.8668 18.1924L42.5957 17.389C42.5909 17.3744 42.5957 17.3527 42.5957 17.3527L42.6393 17.2631C42.6441 17.251 42.6635 17.2413 42.6635 17.2413L43.1233 17.0865C43.1354 17.0816 43.1548 17.0889 43.1548 17.0889L43.2419 17.1348C43.2516 17.1421 43.2637 17.1615 43.2637 17.1615L43.4985 17.8585L43.1935 17.9625C43.1572 17.977 43.1451 18.0012 43.1572 18.0375L43.2806 18.4005C43.2952 18.4368 43.3194 18.4489 43.3557 18.4368L43.772 18.2965C43.7889 18.2916 43.8034 18.2844 43.8155 18.2747C43.8276 18.265 43.8421 18.2457 43.8591 18.2166L44.0067 17.9214C44.0106 17.9109 44.0138 17.9005 44.016 17.8897C44.0169 17.8848 44.0177 17.8798 44.0182 17.8747C44.0186 17.8702 44.0188 17.8656 44.0188 17.8609C44.0188 17.8391 44.0164 17.8222 44.0116 17.8052L43.6655 16.7839C43.6619 16.7723 43.658 16.7619 43.6539 16.7531C43.6501 16.7444 43.6461 16.7372 43.6422 16.7314C43.6394 16.7271 43.6366 16.7236 43.634 16.721C43.6248 16.7137 43.6142 16.7078 43.6023 16.701L43.6016 16.7007L43.6012 16.7004L43.5904 16.6944L43.2952 16.5468C43.271 16.5347 43.2468 16.5298 43.2274 16.5298C43.2143 16.5298 43.2029 16.5307 43.1933 16.5325C43.1901 16.5331 43.1871 16.5337 43.1843 16.5345C43.1815 16.5353 43.179 16.5362 43.1766 16.5371L42.2859 16.8372C42.2714 16.842 42.2545 16.8493 42.24 16.8614C42.2254 16.8735 42.2109 16.888 42.2012 16.9098L42.056 17.2099C42.0439 17.2341 42.0391 17.2559 42.0391 17.2752C42.0391 17.284 42.0401 17.2933 42.0412 17.3008C42.0425 17.3099 42.0439 17.3164 42.0439 17.3164L42.3223 18.1392C42.3247 18.1489 42.3198 18.1706 42.3198 18.1706L42.2787 18.2553C42.2738 18.2674 42.2545 18.2771 42.2545 18.2771L41.7922 18.4344C41.7801 18.4393 41.7608 18.432 41.7608 18.432L41.6736 18.386C41.6682 18.3838 41.6638 18.3807 41.6605 18.3779C41.6591 18.3767 41.6579 18.3755 41.6569 18.3745L41.655 18.3724L41.6543 18.3715L41.4147 17.6624L41.7003 17.5656C41.7124 17.5608 41.7245 17.5511 41.7317 17.5366C41.7388 17.5259 41.7407 17.5153 41.7393 17.5037C41.7388 17.4995 41.7379 17.4951 41.7366 17.4906L41.6131 17.1276C41.6083 17.1107 41.5962 17.101 41.5817 17.0937C41.572 17.091 41.5631 17.089 41.555 17.0887C41.5489 17.0885 41.5433 17.0892 41.5381 17.0913L41.1339 17.2268C41.1218 17.2316 41.1073 17.2365 41.0952 17.2462C41.0807 17.2559 41.0686 17.2728 41.0565 17.297L40.9113 17.5971C40.9016 17.6189 40.8943 17.6358 40.8919 17.6503C40.8871 17.6649 40.8919 17.6866 40.9016 17.7157L41.2477 18.7369C41.2525 18.7514 41.2598 18.7684 41.2719 18.7853Z" fill="white"/>
<path d="M41.6472 20.3365C41.6448 20.322 41.6472 20.3099 41.6545 20.2978C41.6617 20.2857 41.6738 20.2785 41.6859 20.276L44.0045 19.8235L43.8932 19.2499C43.8859 19.2112 43.9004 19.1894 43.9392 19.1822L44.3167 19.1096C44.3554 19.1023 44.3772 19.1168 44.3845 19.1556L44.7064 20.7988C44.7074 20.8052 44.7076 20.8112 44.7065 20.8171C44.7052 20.8245 44.7021 20.8318 44.6967 20.8399C44.69 20.85 44.6821 20.8577 44.6731 20.8623C44.6691 20.8643 44.6648 20.8658 44.6604 20.8665L44.2828 20.9391C44.2659 20.9415 44.2514 20.9391 44.2393 20.9295C44.2247 20.9198 44.2175 20.9076 44.2151 20.8931L44.1013 20.3148L41.7828 20.7673C41.7489 20.7746 41.7295 20.7625 41.7247 20.731L41.6472 20.3341V20.3365Z" fill="white"/>
<path fill-rule="evenodd" clip-rule="evenodd" d="M3.35043 26.8246C3.3117 26.8319 3.29476 26.8537 3.30202 26.8924L3.30444 26.8972L3.37221 27.2747C3.37947 27.311 3.40125 27.328 3.43997 27.3207L4.43468 27.1441L4.58957 28.0153C4.59441 28.0419 4.60168 28.0613 4.61378 28.0758C4.62588 28.0903 4.63798 28.1024 4.65492 28.1145L4.92598 28.3033C4.95987 28.3299 4.99859 28.3371 5.03973 28.3299L6.09736 28.1411C6.10704 28.1387 6.12157 28.1339 6.13851 28.1266C6.15545 28.1193 6.17239 28.1024 6.19417 28.0758L6.38295 27.8047C6.39989 27.7805 6.40957 27.7612 6.40957 27.7442C6.41186 27.726 6.40983 27.7098 6.40756 27.6918L6.40715 27.6886L6.17239 26.3817C6.16513 26.343 6.14335 26.3261 6.10462 26.3334L3.35043 26.8246ZM5.15832 27.7902C5.15348 27.7926 5.14138 27.7854 5.14138 27.7854L5.05909 27.7273C5.05677 27.725 5.05389 27.7193 5.05152 27.714L5.04909 27.7084C5.04781 27.7053 5.04699 27.7031 5.04699 27.7031L4.93082 27.0497L5.75611 26.9021L5.87228 27.5555C5.87228 27.5582 5.87161 27.5619 5.87077 27.5655C5.86935 27.5715 5.86744 27.5773 5.86744 27.5773L5.81178 27.6644C5.80694 27.6716 5.79242 27.6765 5.79242 27.6765L5.15832 27.7902Z" fill="white"/>
<path fill-rule="evenodd" clip-rule="evenodd" d="M4.41537 31.1614C4.37906 31.1444 4.35244 31.1033 4.33066 31.0404L3.99909 30.0385C3.99909 30.0385 3.99425 30.0167 3.99183 29.9997C3.99183 29.9804 3.99425 29.9586 4.00877 29.9344L4.15882 29.6343C4.17092 29.6101 4.18545 29.5932 4.20239 29.5835C4.20716 29.5808 4.21136 29.5782 4.21514 29.5759L4.2155 29.5757C4.22496 29.57 4.23182 29.5658 4.23869 29.5641L6.29345 28.8841C6.29345 28.8841 6.30208 28.8824 6.31316 28.8805C6.32063 28.8792 6.32921 28.8778 6.33701 28.8768C6.35637 28.8768 6.37574 28.8817 6.40236 28.8938L6.70004 29.0462C6.72182 29.0559 6.73635 29.068 6.74603 29.0801C6.75571 29.0922 6.76539 29.1116 6.77265 29.1358L7.11148 30.1595C7.11632 30.1764 7.11874 30.1933 7.12116 30.2127C7.12116 30.232 7.11632 30.2538 7.10664 30.2756L6.959 30.5709C6.95433 30.579 6.94966 30.5872 6.94444 30.5948C6.94104 30.5998 6.93741 30.6045 6.9334 30.6089C6.932 30.6104 6.93055 30.6119 6.92904 30.6133L6.9273 30.6149L6.92512 30.6168C6.9106 30.6314 6.89366 30.641 6.87188 30.6483L4.8389 31.3211C4.81228 31.3308 4.7905 31.3332 4.77356 31.3308L4.77133 31.3304L4.76865 31.3299C4.76493 31.3292 4.7612 31.3283 4.75743 31.3272L4.75202 31.3255L4.74652 31.3236C4.74359 31.3226 4.74062 31.3215 4.73761 31.3204L4.7297 31.3174L4.72031 31.3138L4.42021 31.1662L4.41537 31.1614ZM4.83406 30.7766C4.83406 30.7766 4.85584 30.7838 4.86552 30.779L6.49432 30.2393C6.49432 30.2393 6.49633 30.2386 6.49894 30.2377L6.50312 30.236C6.50427 30.2355 6.5054 30.235 6.50643 30.2345C6.50913 30.2331 6.51184 30.231 6.51412 30.2281C6.51592 30.2259 6.51746 30.2232 6.51853 30.22L6.55967 30.1328C6.55967 30.1328 6.56693 30.1135 6.56451 30.1062L6.36605 29.5085C6.36605 29.5085 6.35637 29.4891 6.34427 29.4843L6.25956 29.4383C6.25956 29.4383 6.23778 29.431 6.2281 29.4359L4.5993 29.9755C4.5993 29.9755 4.57994 29.9852 4.5751 29.9973L4.5388 30.0723L4.76146 30.7451L4.83648 30.7814L4.83406 30.7766Z" fill="white"/>
<path d="M5.68126 33.913C5.6498 33.9396 5.64253 33.9687 5.65706 33.9953H5.66432L5.85067 34.3583C5.85793 34.3728 5.87003 34.3825 5.88455 34.3849C5.89907 34.3873 5.9136 34.3873 5.9257 34.3801L8.51532 33.2983C8.52984 33.2911 8.53953 33.2789 8.54437 33.262C8.5492 33.2451 8.5492 33.2305 8.54194 33.2185L8.36527 32.8772C8.34591 32.8433 8.31928 32.8361 8.2854 32.853L6.66628 33.5573L7.28586 32.8627C7.31248 32.8337 7.31732 32.7998 7.30038 32.7659L7.1479 32.4682C7.13096 32.4344 7.10192 32.4223 7.06078 32.4271L6.13625 32.5287L7.64889 31.6188C7.68277 31.5994 7.69003 31.5728 7.67309 31.5389L7.49641 31.1977C7.47705 31.1638 7.45043 31.1566 7.41655 31.1735L5.03022 32.6522C5.01812 32.6594 5.01086 32.6715 5.0036 32.686C4.99634 32.7006 4.99634 32.7151 5.0036 32.7272L5.19238 33.095C5.2069 33.1192 5.23352 33.1265 5.27224 33.1192L6.62756 32.9232L5.68126 33.913Z" fill="white"/>
<path d="M6.61549 35.5876C6.59371 35.5561 6.59613 35.5295 6.63001 35.5053L8.90259 33.8718C8.93405 33.85 8.96068 33.8524 8.98488 33.8863L9.87067 35.1181C9.89245 35.1496 9.89003 35.1762 9.85615 35.2004L9.54394 35.4254C9.54394 35.4254 9.51974 35.4375 9.5028 35.4351C9.48586 35.4351 9.47376 35.4254 9.46408 35.4133L8.83724 34.5421L8.26365 34.9535L8.75738 35.6408C8.75738 35.6408 8.76948 35.665 8.76706 35.682C8.76706 35.6989 8.75738 35.711 8.74528 35.7207L8.43307 35.9458C8.41855 35.9554 8.40403 35.9579 8.38708 35.9554C8.37014 35.9506 8.35804 35.9433 8.35078 35.9337L7.85706 35.2464L7.28347 35.6578L7.9103 36.529C7.93208 36.5604 7.92967 36.5871 7.89578 36.6113L7.58358 36.8363C7.55211 36.8581 7.52549 36.8557 7.50129 36.8218L6.61549 35.59V35.5876Z" fill="white"/>
<path fill-rule="evenodd" clip-rule="evenodd" d="M9.21979 38.7143C9.22221 38.7337 9.23915 38.7603 9.23915 38.7603H9.22947L9.50538 39.0459C9.52232 39.0652 9.53926 39.0701 9.55378 39.0652C9.5683 39.0604 9.5804 39.0531 9.58524 39.0386L10.0378 38.0101L10.3863 38.0149C10.4299 38.0174 10.4686 37.998 10.5049 37.9641L11.2649 37.2236C11.2659 37.2228 11.2668 37.222 11.2678 37.2212L11.2697 37.2194L11.2719 37.2171L11.2731 37.2157C11.2744 37.2142 11.2757 37.2126 11.2769 37.2109C11.2783 37.2089 11.2797 37.2069 11.2811 37.2048L11.2813 37.2045C11.283 37.202 11.2848 37.1995 11.2866 37.197C11.3012 37.1728 11.3109 37.1461 11.3109 37.1147L11.3157 36.7831C11.3157 36.7614 11.3133 36.7468 11.3084 36.7347C11.3036 36.7226 11.2963 36.7105 11.2915 36.7009C11.2894 36.6967 11.2855 36.6911 11.2817 36.6861C11.2768 36.6797 11.2721 36.6742 11.2721 36.6742L10.3476 35.7232C10.321 35.6965 10.2944 35.6965 10.2653 35.7232L8.25897 37.6737C8.23235 37.7003 8.23235 37.727 8.25897 37.756L8.52761 38.0319C8.55423 38.0585 8.58086 38.0585 8.6099 38.0319L9.33838 37.3252L9.66511 37.6616L9.22705 38.6659C9.21979 38.6805 9.21979 38.695 9.21979 38.7143ZM10.3137 37.4511C10.3065 37.4608 10.2847 37.4632 10.2847 37.4632H10.1903C10.1844 37.4632 10.1773 37.4603 10.1716 37.4573C10.1694 37.4562 10.1674 37.455 10.1658 37.454L10.1626 37.452L10.1613 37.4511L9.70141 36.9792L10.304 36.3935L10.7639 36.8654C10.7652 36.8667 10.7673 36.8702 10.7696 36.8759C10.7716 36.8806 10.7738 36.8868 10.776 36.8945V36.9913C10.776 36.9929 10.7755 36.9947 10.7748 36.9966C10.7741 36.9984 10.7732 37.0002 10.7722 37.0019C10.771 37.0039 10.7698 37.0058 10.7688 37.0073C10.7674 37.0093 10.7663 37.0106 10.7663 37.0106L10.3137 37.4511Z" fill="white"/>
<path d="M10.33 39.7962C10.2985 39.772 10.2961 39.7454 10.3203 39.7139L12.0798 37.5262C12.0798 37.5262 12.1015 37.5093 12.1161 37.5093C12.133 37.5093 12.1451 37.5141 12.1572 37.5238L12.4573 37.7634C12.4573 37.7634 12.4743 37.7851 12.4791 37.7997C12.4839 37.8142 12.4791 37.8287 12.4718 37.8384L10.9907 39.68L11.9515 40.452C11.983 40.4762 11.9854 40.5028 11.9612 40.5343L11.7191 40.8344C11.6949 40.8659 11.6683 40.8683 11.6369 40.8441L10.3324 39.7938L10.33 39.7962Z" fill="white"/>
<path d="M12.547 41.3861C12.5253 41.4175 12.5301 41.4442 12.564 41.466L12.8883 41.6741C12.9198 41.6959 12.9464 41.691 12.9682 41.6571L14.4808 39.3024C14.5026 39.271 14.4977 39.2444 14.4638 39.2226L14.1395 39.0144C14.1081 38.9927 14.0814 38.9975 14.0597 39.0314L12.547 41.3861Z" fill="white"/>
<path d="M13.9609 42.3178C13.927 42.3008 13.9173 42.2742 13.9343 42.2404L15.1952 39.7429C15.2122 39.709 15.2388 39.6993 15.2727 39.7162L16.6256 40.3987C16.6594 40.4156 16.6691 40.4423 16.6522 40.4761L16.4779 40.8198C16.4779 40.8198 16.4634 40.8392 16.4489 40.8488C16.4344 40.8585 16.4223 40.8585 16.4102 40.8513L15.4397 40.3624L15.1226 40.9916L15.8825 41.3764C15.9164 41.3933 15.9261 41.42 15.9092 41.4538L15.7349 41.7975C15.718 41.8314 15.6914 41.841 15.6575 41.8241L14.8975 41.4393L14.3796 42.4654C14.3627 42.4993 14.336 42.509 14.3022 42.492L13.9585 42.3178H13.9609Z" fill="white"/>
<path d="M16.8404 43.5932C16.8476 43.6078 16.8573 43.615 16.8694 43.6199V43.6175L17.2518 43.7505C17.2808 43.7602 17.3002 43.7506 17.3123 43.7191L18.0964 41.4902L18.6531 41.6863C18.6605 41.6887 18.6679 41.6899 18.6753 41.6896C18.6794 41.6894 18.6835 41.6887 18.6876 41.6874C18.6906 41.6865 18.6936 41.6853 18.6967 41.6838C18.7112 41.6766 18.7233 41.6645 18.7281 41.65L18.8564 41.2869C18.8612 41.27 18.8588 41.2555 18.8515 41.241C18.8443 41.2264 18.8322 41.2168 18.8201 41.2119L17.2397 40.6577C17.2034 40.6456 17.1768 40.6577 17.1647 40.694L17.0364 41.057C17.0243 41.0933 17.0364 41.12 17.0727 41.1321L17.6245 41.3257L16.8404 43.5545C16.8331 43.569 16.8331 43.5787 16.8404 43.5932Z" fill="white"/>
<path d="M18.9268 44.2466C18.8881 44.2369 18.8736 44.2151 18.8833 44.1764L19.5343 41.4563C19.544 41.4176 19.5658 41.4031 19.6045 41.4127L19.9772 41.5023C20.0159 41.512 20.0304 41.5337 20.0208 41.5725L19.3697 44.2926C19.3601 44.3313 19.3383 44.3458 19.2995 44.3361L18.9268 44.2466Z" fill="white"/>
<path d="M21.734 44.7305C21.7485 44.7451 21.7631 44.7547 21.78 44.7547L21.7776 44.7571L22.2084 44.8104C22.2471 44.8152 22.2689 44.7983 22.2737 44.7596L22.6222 41.9838C22.6271 41.9451 22.6101 41.9233 22.5714 41.9184L22.1914 41.8701C22.1527 41.8652 22.1309 41.8821 22.1261 41.9209L21.9034 43.6972L21.8937 43.5786L21.4605 41.8362C21.4509 41.7974 21.4315 41.7732 21.4049 41.7708L20.899 41.7079C20.8603 41.7031 20.8385 41.72 20.8337 41.7587L20.4852 44.5345C20.4803 44.5732 20.4973 44.595 20.536 44.5998L20.9184 44.6483C20.9571 44.6531 20.9789 44.6362 20.9837 44.5974L21.2088 42.8066L21.7074 44.687C21.7094 44.6929 21.7117 44.6988 21.7149 44.7047C21.7194 44.7133 21.7254 44.7219 21.734 44.7305Z" fill="white"/>
<path d="M25.0255 44.8104C25.0086 44.8298 24.9965 44.8419 24.9844 44.8467C24.9779 44.8493 24.9714 44.8512 24.9649 44.8524C24.9593 44.8534 24.9537 44.854 24.9481 44.854L23.8299 44.8733C23.8299 44.8733 23.8266 44.8733 23.8215 44.873C23.8188 44.8729 23.8156 44.8726 23.8121 44.8723C23.8084 44.8719 23.8044 44.8713 23.8005 44.8706C23.7989 44.8703 23.7973 44.87 23.7957 44.8696L23.7912 44.8685C23.7743 44.8636 23.7549 44.854 23.7331 44.8346L23.4911 44.5999C23.4717 44.5805 23.4596 44.5611 23.4548 44.5442C23.4499 44.5273 23.4475 44.5127 23.4475 44.5055L23.4088 42.3516C23.4088 42.3081 23.4209 42.2718 23.4475 42.2427L23.6823 42.0056C23.6992 41.9886 23.7137 41.9765 23.7283 41.9717C23.7428 41.9669 23.7621 41.962 23.7912 41.962L24.8682 41.9427H24.8736C24.8772 41.9427 24.8809 41.9427 24.8847 41.9428C24.8942 41.943 24.9044 41.9436 24.9166 41.9451C24.9335 41.9475 24.9553 41.9596 24.9771 41.9814L25.2143 42.2113C25.2312 42.2282 25.2433 42.2427 25.2506 42.2573C25.2578 42.2718 25.2627 42.2911 25.2627 42.3202L25.2699 42.7679C25.2699 42.8066 25.2506 42.826 25.2119 42.8284L24.827 42.8357C24.7883 42.8357 24.769 42.8163 24.7665 42.7776L24.7617 42.5573C24.7617 42.5428 24.7569 42.5331 24.7496 42.5283L24.677 42.463C24.677 42.463 24.6576 42.4509 24.6431 42.4509L24.026 42.463C24.0114 42.463 24.0018 42.4678 23.9921 42.4751L23.9219 42.5428C23.9219 42.5428 23.9098 42.5622 23.9098 42.5719L23.9412 44.2877C23.9412 44.2877 23.9461 44.3095 23.9533 44.3167L24.0139 44.3748L24.723 44.3627L24.7811 44.3022C24.7811 44.3022 24.7825 44.2999 24.7843 44.2966C24.786 44.2935 24.7881 44.2895 24.7898 44.2855C24.7917 44.281 24.7932 44.2765 24.7932 44.2732L24.7835 43.794L24.3962 43.8013C24.3575 43.8013 24.3382 43.7819 24.3357 43.7432L24.3285 43.3584C24.3285 43.3197 24.3478 43.3003 24.3866 43.2979L25.2167 43.2834C25.2554 43.2834 25.2748 43.3027 25.2772 43.3414L25.299 44.4982C25.299 44.4982 25.2941 44.5224 25.2869 44.5345C25.2796 44.5466 25.2675 44.5611 25.2554 44.5757L25.0255 44.8177V44.8104Z" fill="white"/>
<path d="M28.0847 44.4208C28.0944 44.4596 28.1162 44.4741 28.1549 44.4644V44.4668L28.5301 44.3773C28.5688 44.3676 28.5833 44.3458 28.5736 44.3071L28.3074 43.189L29.1375 42.993C29.1763 42.9833 29.1908 42.9615 29.1811 42.9228L29.0916 42.5501C29.0819 42.5114 29.0601 42.4969 29.0214 42.5066L28.1912 42.7026L28.0291 42.0153L29.0867 41.7636C29.0988 41.7588 29.1085 41.7491 29.1133 41.7346C29.1158 41.7201 29.1158 41.6959 29.1158 41.6959L29.0262 41.3208C29.0165 41.282 28.9947 41.2675 28.956 41.2772L27.4821 41.6281C27.4434 41.6378 27.4289 41.6596 27.4385 41.6983L28.0847 44.4208Z" fill="white"/>
<path d="M30.7568 43.7601C30.7205 43.7746 30.6963 43.7625 30.6817 43.7262L29.6894 41.1101C29.6749 41.0738 29.687 41.0496 29.7233 41.0351L31.1416 40.4978C31.1779 40.4833 31.2021 40.4954 31.2166 40.5317L31.3521 40.8899C31.357 40.902 31.357 40.9165 31.3521 40.9335C31.3473 40.9504 31.3352 40.9601 31.3207 40.9649L30.3163 41.3449L30.5656 42.0055L31.3594 41.7055C31.3637 41.7037 31.3684 41.7026 31.3734 41.7021C31.3761 41.7018 31.3789 41.7018 31.3817 41.7019C31.3849 41.702 31.3881 41.7023 31.3915 41.7028C31.3952 41.7034 31.399 41.7043 31.403 41.7055C31.4175 41.7103 31.4296 41.7224 31.4344 41.7369L31.57 42.0951C31.5748 42.1096 31.5748 42.1265 31.5675 42.1411C31.5603 42.1556 31.5482 42.1653 31.5361 42.1701L30.7422 42.4702L30.9915 43.1309L31.9959 42.7509C32.0322 42.7364 32.0564 42.7485 32.0709 42.7848L32.2065 43.143C32.221 43.1793 32.2089 43.2035 32.1726 43.218L30.7543 43.7552L30.7568 43.7601Z" fill="white"/>
<path fill-rule="evenodd" clip-rule="evenodd" d="M34.4694 42.0588C34.4815 42.0467 34.4936 42.0273 34.5009 42.0007L34.5057 42.0056L34.5977 41.6837C34.6025 41.6667 34.6025 41.6474 34.6025 41.628C34.6025 41.6087 34.5977 41.5893 34.588 41.5699L33.5594 39.6847C33.5521 39.6678 33.5424 39.6557 33.5328 39.6436C33.5231 39.6315 33.5013 39.6194 33.4674 39.6097L33.1504 39.5153C33.1189 39.5056 33.0971 39.5056 33.0802 39.5105C33.0632 39.5153 33.0487 39.5226 33.0342 39.5298L31.8677 40.1663C31.8338 40.1857 31.8241 40.2123 31.8435 40.2462L33.1818 42.7025C33.2012 42.7388 33.2278 42.7461 33.2617 42.7267L34.4089 42.0999C34.4355 42.0854 34.4549 42.0709 34.4694 42.0588ZM34.041 41.628C34.0483 41.6401 34.0434 41.6595 34.0434 41.6595L34.0483 41.6571L34.0241 41.7369L33.4118 42.0709L32.4969 40.3914L33.0753 40.0768C33.085 40.0743 33.1068 40.0743 33.1068 40.0743L33.1964 40.101C33.206 40.1034 33.2206 40.1203 33.2206 40.1203L34.041 41.628Z" fill="white"/>
<path d="M35.8002 41.2287C35.7687 41.2529 35.7421 41.2481 35.7179 41.2166L34.0576 38.9635C34.0334 38.9321 34.0383 38.9055 34.0697 38.8813L35.2895 37.981C35.321 37.9568 35.3476 37.9616 35.3718 37.9931L35.5993 38.3029C35.5993 38.3029 35.6114 38.3271 35.609 38.344C35.609 38.3609 35.5993 38.3731 35.5872 38.3827L34.7232 39.0192L35.1419 39.5879L35.8244 39.0845C35.8244 39.0845 35.8329 39.0803 35.8433 39.0774C35.8448 39.0769 35.8464 39.0765 35.848 39.0761C35.8503 39.0756 35.8526 39.0752 35.8549 39.0749C35.8586 39.0745 35.8622 39.0744 35.8655 39.0749C35.8825 39.0749 35.8946 39.0845 35.9043 39.0966L36.1318 39.4064C36.1414 39.4209 36.1439 39.4354 36.1414 39.4524C36.139 39.4693 36.1318 39.4814 36.1197 39.4887L35.4372 39.992L35.8559 40.5608L36.7199 39.9243C36.7513 39.9001 36.778 39.9049 36.8022 39.9364L37.0297 40.2462C37.0539 40.2776 37.049 40.3042 37.0176 40.3284L35.7978 41.2287H35.8002Z" fill="white"/>
<path fill-rule="evenodd" clip-rule="evenodd" d="M38.889 38.6031C38.9083 38.6007 38.935 38.5837 38.935 38.5837V38.5886L39.2181 38.3127C39.2375 38.2957 39.2423 38.2788 39.2375 38.2643C39.2326 38.2498 39.2254 38.2401 39.2109 38.2328L38.1847 37.7803L38.1895 37.4318C38.1919 37.3882 38.1726 37.3495 38.1387 37.3132L37.3981 36.5533C37.3928 36.5462 37.3863 36.5418 37.3793 36.537L37.3766 36.5352C37.3749 36.534 37.3732 36.5328 37.3715 36.5315C37.3473 36.517 37.3207 36.5073 37.2892 36.5073L36.9576 36.5025C36.9359 36.5001 36.9214 36.5049 36.9093 36.5097C36.8972 36.5146 36.885 36.5218 36.8754 36.5267C36.8657 36.5315 36.8487 36.546 36.8487 36.546L35.8976 37.4729C35.871 37.4995 35.871 37.5262 35.8976 37.5552L37.8483 39.5614C37.8749 39.588 37.9015 39.588 37.9306 39.5614L38.2065 39.2928C38.2331 39.2662 38.2331 39.2395 38.2065 39.2105L37.4998 38.4821L37.8362 38.1554L38.8406 38.5958C38.8551 38.6031 38.8696 38.6031 38.889 38.6031ZM37.6256 37.5092C37.6353 37.5165 37.6377 37.5382 37.6377 37.5382V37.6326C37.6377 37.6378 37.6355 37.6438 37.633 37.649C37.6296 37.6561 37.6256 37.6617 37.6256 37.6617L37.1537 38.1215L36.568 37.5189L37.0399 37.0591C37.0413 37.0577 37.0449 37.0557 37.0507 37.0532C37.0553 37.0513 37.0614 37.0491 37.069 37.047H37.1658C37.1731 37.047 37.1852 37.0567 37.1852 37.0567L37.6256 37.5092Z" fill="white"/>
<path fill-rule="evenodd" clip-rule="evenodd" d="M40.9312 36.2136C40.9262 36.216 40.9207 36.2179 40.9148 36.2194C40.8954 36.2242 40.8785 36.2242 40.8615 36.2194L40.3194 36.0064L39.7482 36.7421L40.0919 37.214C40.1016 37.2285 40.1064 37.2455 40.1064 37.2648C40.1064 37.2842 40.1016 37.3011 40.0919 37.3132L39.8692 37.6012C39.8596 37.6133 39.845 37.623 39.8257 37.6278C39.8063 37.6327 39.7918 37.6278 39.7821 37.6133L38.0783 35.2489C38.071 35.2368 38.0638 35.2223 38.0589 35.2078C38.0541 35.1933 38.0541 35.1787 38.0662 35.1642L38.3687 34.7746C38.3857 34.7528 38.4147 34.748 38.4534 34.7601L41.1689 35.8225C41.1858 35.8273 41.1955 35.8394 41.1955 35.8588C41.1955 35.8781 41.1931 35.8927 41.1834 35.9072L40.9607 36.1952L40.9583 36.1927C40.9529 36.1995 40.946 36.2055 40.9376 36.2103L40.9353 36.2116L40.9312 36.2136ZM38.7874 35.4086L39.4384 36.3089L39.8257 35.8104L38.7898 35.4086H38.7874Z" fill="white"/>
<path d="M41.8365 34.8206C41.851 34.8158 41.868 34.7964 41.868 34.7964L41.8704 34.7988L42.0761 34.4503C42.093 34.4237 42.0858 34.4019 42.0567 34.385L40.0238 33.1798L40.3239 32.674C40.3287 32.6619 40.3311 32.6474 40.3287 32.6305C40.3263 32.6135 40.3166 32.6014 40.3021 32.5917L39.9705 32.3957C39.956 32.3884 39.9415 32.386 39.9245 32.3909C39.9181 32.3941 39.9108 32.3996 39.9046 32.4048C39.8967 32.4114 39.8907 32.4175 39.8907 32.4175L39.0363 33.8574C39.0145 33.8913 39.0218 33.9179 39.0557 33.9373L39.3872 34.1333C39.4211 34.1551 39.4478 34.1478 39.4671 34.1139L39.7648 33.6106L41.7978 34.8158C41.8099 34.8206 41.822 34.823 41.8365 34.8206Z" fill="white"/>
<path d="M42.8845 32.9014C42.8675 32.9377 42.8433 32.9474 42.807 32.9304L40.2658 31.7616C40.2295 31.7446 40.2198 31.7204 40.2368 31.6841L40.3965 31.3356C40.4135 31.2993 40.4377 31.2897 40.474 31.3066L43.0152 32.4755C43.0515 32.4924 43.0612 32.5166 43.0442 32.5529L42.8845 32.9014Z" fill="white"/>
<path fill-rule="evenodd" clip-rule="evenodd" d="M43.9713 30.1015C43.9931 30.0385 43.9931 29.9901 43.9761 29.9538L43.9786 29.9563L43.8261 29.6586C43.8209 29.6496 43.8158 29.6405 43.8102 29.6322C43.8085 29.6296 43.8067 29.627 43.8049 29.6246C43.8033 29.6225 43.8017 29.6205 43.8 29.6185C43.7983 29.6164 43.7965 29.6145 43.7946 29.6126C43.7825 29.6005 43.7632 29.5908 43.7365 29.5812L41.7036 28.906C41.6842 28.8987 41.6624 28.8987 41.6431 28.8987C41.6237 28.9011 41.6043 28.906 41.5874 28.9156L41.2921 29.0633C41.2704 29.0729 41.2558 29.0875 41.2437 29.1044L41.2384 29.1136L41.2348 29.1197C41.2328 29.1231 41.2309 29.1264 41.2292 29.1298C41.2275 29.133 41.2259 29.1362 41.2244 29.1394L41.2227 29.1436L41.2213 29.1472C41.2207 29.149 41.2201 29.1509 41.2195 29.1528L40.8807 30.1765C40.8733 30.1949 40.8702 30.2105 40.8691 30.2244C40.8689 30.2267 40.8688 30.2289 40.8687 30.2311L40.8686 30.237C40.8686 30.2396 40.8688 30.2421 40.8691 30.2447C40.8694 30.2472 40.8698 30.2496 40.8703 30.252L40.8709 30.2544C40.8738 30.266 40.8791 30.2783 40.8855 30.2926L41.0332 30.5927C41.0453 30.6169 41.0574 30.6339 41.0743 30.6436C41.0796 30.6471 41.0862 30.6506 41.0924 30.6537C41.0965 30.6557 41.1004 30.6575 41.1037 30.659C41.1092 30.6614 41.113 30.6629 41.113 30.6629L43.1654 31.343C43.1726 31.3454 43.1847 31.3502 43.2041 31.3502C43.2235 31.3502 43.2452 31.3454 43.2694 31.3333L43.5695 31.1832C43.5937 31.1687 43.6107 31.1566 43.6204 31.1397C43.6245 31.1324 43.6287 31.1247 43.6321 31.1182C43.6366 31.1097 43.6397 31.1034 43.6397 31.1034L43.9713 30.1015ZM43.388 29.9901C43.4001 29.995 43.4122 30.0119 43.4122 30.0119L43.4147 30.0143L43.451 30.0894L43.2283 30.7621L43.1533 30.7984C43.1515 30.7993 43.1492 30.8 43.1468 30.8005C43.144 30.801 43.141 30.8013 43.138 30.8014C43.1345 30.8015 43.1311 30.8015 43.1284 30.8013C43.1245 30.8012 43.1218 30.8009 43.1218 30.8009L41.493 30.2612C41.4833 30.2564 41.4688 30.2394 41.4688 30.2394L41.4277 30.1499C41.4228 30.1402 41.4252 30.1184 41.4252 30.1184L41.6237 29.5207C41.6247 29.5175 41.6285 29.5135 41.6325 29.5099C41.6346 29.5079 41.6369 29.5061 41.6387 29.5046L41.6414 29.5025L41.6431 29.5013L41.7278 29.4553C41.735 29.4505 41.7423 29.4505 41.7471 29.4505H41.7592L43.388 29.9901Z" fill="white"/>
<path d="M44.6102 27.2848L44.6092 27.2859L44.6069 27.2886L44.606 27.2895L44.6039 27.2915L44.6017 27.2936L44.5983 27.2966C44.5838 27.3087 44.5692 27.3184 44.5547 27.3208L42.65 27.7249L44.4264 28.0396C44.4652 28.0468 44.4797 28.0686 44.4748 28.1073L44.4071 28.4848C44.3998 28.5236 44.378 28.5381 44.3393 28.5332L41.5851 28.0444C41.5464 28.0371 41.5319 28.0154 41.5367 27.9766L41.6263 27.4757C41.6311 27.4491 41.6529 27.4321 41.694 27.4249L43.4559 27.0812L43.5745 27.0764L41.8102 26.7642C41.7715 26.7569 41.757 26.7351 41.7618 26.6964L41.8296 26.3189C41.8368 26.2802 41.8586 26.2657 41.8973 26.2705L44.6515 26.7594C44.6902 26.7666 44.7048 26.7884 44.6999 26.8271L44.6249 27.2555V27.253C44.6237 27.2612 44.6209 27.2688 44.6166 27.2758C44.6148 27.2789 44.6126 27.2819 44.6102 27.2848Z" fill="white"/>
<path d="M36.4385 23.8512C36.4401 23.8474 36.4414 23.8432 36.4414 23.8398V23.4332C36.4414 23.4332 36.4389 23.4187 36.4317 23.4114L36.3736 23.3533C36.3736 23.3533 36.3591 23.3436 36.3494 23.3436H35.8557C35.8557 23.3436 35.8411 23.3461 35.8339 23.3533L35.7734 23.4114C35.7734 23.4114 35.7637 23.4259 35.7637 23.4356V23.8398C35.7637 23.8398 35.7644 23.8444 35.766 23.8498C35.7676 23.8548 35.7699 23.8605 35.7734 23.8639L35.8218 23.9123H36.3808L36.4293 23.8639H36.4317C36.4317 23.8639 36.4356 23.858 36.4385 23.8512Z" fill="white"/>
<path d="M36.4414 24.8562C36.4414 24.8658 36.4317 24.8804 36.4317 24.8804L36.3833 24.9288H35.8242L35.7758 24.8804C35.7685 24.8755 35.7661 24.8562 35.7661 24.8562V24.4568C35.7661 24.4423 35.7758 24.4254 35.7758 24.4254L35.8363 24.3673C35.8382 24.3645 35.8425 24.3625 35.8471 24.361C35.8501 24.36 35.8532 24.3593 35.8558 24.3588C35.8599 24.358 35.8629 24.3576 35.8629 24.3576H36.3494C36.3591 24.3576 36.3736 24.3673 36.3736 24.3673L36.4317 24.4254C36.4389 24.4326 36.4414 24.4423 36.4414 24.4568V24.8562Z" fill="white"/>
<path d="M14.5197 23.8953C14.5197 23.8953 14.5293 23.8807 14.5293 23.8711V23.4113C14.5293 23.4113 14.5291 23.4097 14.5286 23.4075C14.5283 23.4058 14.5278 23.4038 14.5272 23.4017C14.5257 23.3966 14.5232 23.3907 14.5197 23.3871L14.4737 23.3411H13.9098L13.8614 23.3895C13.8614 23.3895 13.8517 23.404 13.8517 23.4137V23.8759C13.8517 23.8759 13.8541 23.8929 13.8614 23.9001L13.9195 23.9558C13.9195 23.9558 13.9316 23.963 13.9412 23.963H14.435C14.435 23.963 14.4543 23.9606 14.4592 23.9534L14.5172 23.8953H14.5197Z" fill="white"/>
<path d="M22.4573 22.4482C22.8881 22.0174 23.452 21.8021 24.0183 21.8021C24.5846 21.8021 25.1485 22.0174 25.5793 22.4482C26.4409 23.3097 26.4409 24.7085 25.5793 25.5701C25.1631 25.9863 24.6088 26.2162 24.0183 26.2162C23.4278 26.2162 22.8735 25.9863 22.4573 25.5701C22.041 25.1538 21.8111 24.5996 21.8111 24.0091C21.8111 23.4187 22.0265 22.879 22.4573 22.4482Z" fill="white"/>
<path fill-rule="evenodd" clip-rule="evenodd" d="M19.8259 19.8153C20.9828 18.661 22.5002 18.0826 24.0177 18.0826C25.5352 18.0826 27.0551 18.661 28.2095 19.8153C30.5208 22.1265 30.5208 25.8872 28.2095 28.1984C27.0889 29.3164 25.6005 29.9335 24.0177 29.9335C22.4349 29.9335 20.9465 29.3189 19.8259 28.1984C18.7078 27.0779 18.0906 25.5896 18.0906 24.0069C18.0906 22.4242 18.7053 20.9358 19.8259 19.8153ZM24.0183 26.7365C23.2898 26.7365 22.6049 26.4534 22.0894 25.9379C21.5739 25.4224 21.2907 24.7376 21.2907 24.0091C21.2907 23.2807 21.5739 22.5958 22.0894 22.0804C23.1543 21.0156 24.8847 21.0156 25.9496 22.0804C27.0145 23.1452 27.0145 24.8755 25.9496 25.9403C25.4341 26.4558 24.7492 26.7389 24.0207 26.7389L24.0183 26.7365Z" fill="white"/>
<path d="M22.7403 34.8292C22.7403 34.8292 22.7475 34.8219 22.7475 34.8171L22.8225 34.3234C22.8225 34.3234 22.8225 34.3113 22.8177 34.3065L22.7693 34.2435L22.7672 34.242L22.7635 34.2394C22.7606 34.2373 22.7571 34.235 22.7548 34.2339L22.2441 34.1564L22.1449 34.8026L22.6555 34.88C22.6555 34.88 22.6701 34.88 22.6749 34.8776L22.7378 34.8316L22.7403 34.8292Z" fill="white"/>
<path fill-rule="evenodd" clip-rule="evenodd" d="M7.02435 40.977C11.705 45.6574 17.8548 47.9976 24.0045 47.9976L24.0021 48C30.1519 48 36.3016 45.6598 40.9823 40.9795C50.3437 31.6163 50.3437 16.3846 40.9823 7.02144C31.6209 -2.33927 16.3857 -2.34169 7.02435 7.02144C-2.33702 16.3822 -2.33702 31.6163 7.02435 40.977ZM7.76251 7.75714C12.2399 3.28006 18.1234 1.04154 24.0045 1.04154C29.8856 1.04154 35.7692 3.28006 40.2441 7.75714C44.6555 12.1682 46.8937 17.9424 46.9587 23.7367H40.0036C39.938 19.7262 38.3783 15.7358 35.3244 12.6821C29.0827 6.44078 18.9275 6.44078 12.6858 12.6821C9.7252 15.6424 8.06701 19.5593 7.99996 23.7367H1.04789C1.11292 17.9424 3.35113 12.1682 7.76251 7.75714ZM7.99988 24.2595C8.06568 28.4388 9.72402 32.3576 12.6858 35.3191C15.8054 38.4386 19.9053 39.9995 24.0051 39.9995C28.1049 39.9995 32.2024 38.441 35.3244 35.3191C38.3796 32.2642 39.9393 28.2717 40.0036 24.2595H46.9587C46.8931 30.0529 44.6549 35.8261 40.2441 40.2365C31.2893 49.1907 16.7173 49.1907 7.76251 40.2365C3.35177 35.8261 1.11358 30.0529 1.04792 24.2595H7.99988ZM8.54278 24.8C8.73678 28.6371 10.3237 32.214 13.0581 34.9504C16.8713 38.7634 22.1941 40.1685 27.1198 39.1657C22.1928 40.1702 16.868 38.7654 13.0537 34.9513C10.3191 32.2146 8.73213 28.6375 8.53833 24.8H8.54278ZM32.5932 25.3015C32.5932 25.333 32.6102 25.3499 32.6416 25.3499L32.6489 25.3402H34.0962C34.1277 25.3402 34.1446 25.3233 34.1446 25.2919V24.9676C34.1446 24.9361 34.1277 24.9192 34.0962 24.9192H33.0216V24.4521C33.0216 24.4424 33.024 24.4352 33.024 24.4352L33.0337 24.4255L33.0918 24.3698C33.0991 24.3626 33.1087 24.3601 33.1087 24.3601H33.8251C33.83 24.3601 33.8348 24.3595 33.8396 24.3589C33.8445 24.3583 33.8493 24.3577 33.8542 24.3577C33.8735 24.3529 33.8929 24.3432 33.9123 24.3238L34.1107 24.1302C34.1301 24.1109 34.1422 24.0939 34.1422 24.0746C34.1431 24.0679 34.1437 24.0611 34.1441 24.0555C34.1446 24.0469 34.1446 24.0407 34.1446 24.0407V23.2397C34.1446 23.238 34.1443 23.2359 34.144 23.233C34.1432 23.2273 34.1422 23.2187 34.1422 23.2058C34.1398 23.1864 34.1301 23.1695 34.1107 23.1501L33.9147 22.9541C33.8905 22.9275 33.859 22.9154 33.8251 22.9154H32.9248C32.9198 22.9154 32.9151 22.9155 32.9107 22.9158C32.9065 22.9161 32.9025 22.9164 32.8988 22.9169C32.8914 22.9178 32.8848 22.919 32.8788 22.9202C32.8667 22.9251 32.8522 22.9347 32.8328 22.9541L32.6368 23.1501C32.6102 23.1743 32.5981 23.2058 32.5981 23.2397V23.6027C32.5981 23.6172 32.6053 23.6293 32.6126 23.639C32.6199 23.6486 32.632 23.6535 32.6465 23.6535H32.9708C32.9829 23.6535 32.995 23.6486 33.0047 23.639C33.0094 23.6343 33.013 23.629 33.0154 23.6231C33.0179 23.6169 33.0192 23.6101 33.0192 23.6027V23.3389H33.6678C33.6775 23.3389 33.692 23.3485 33.692 23.3485L33.7477 23.4066C33.7549 23.4163 33.7574 23.4308 33.7574 23.4308V23.8664C33.7574 23.8785 33.7477 23.8955 33.7477 23.8955L33.6993 23.9439H32.9224C32.903 23.9439 32.8885 23.9463 32.8764 23.9487C32.8643 23.9536 32.8498 23.9632 32.8304 23.9826L32.6344 24.1786C32.6316 24.1824 32.6284 24.1865 32.6249 24.1909C32.6202 24.1969 32.6151 24.2033 32.6099 24.2098L32.6078 24.2125C32.5981 24.227 32.5932 24.244 32.5932 24.2706V25.3015ZM36.6301 25.3111C36.6156 25.3256 36.6035 25.3353 36.589 25.3402L36.5802 25.3432C36.5696 25.3468 36.5608 25.3499 36.5551 25.3499H35.6548C35.6548 25.3499 35.633 25.3499 35.6209 25.3426C35.6064 25.3378 35.5919 25.3281 35.5798 25.3111L35.3837 25.1151C35.3644 25.0957 35.3547 25.0812 35.3498 25.0691C35.3474 25.057 35.345 25.0425 35.345 25.0304V24.3649C35.345 24.3594 35.3453 24.3546 35.3462 24.3502C35.3475 24.3431 35.3502 24.337 35.3547 24.331L35.3578 24.3278L35.3601 24.3253L35.365 24.3196L35.3739 24.309L35.3837 24.2971L35.4854 24.1616L35.3837 24.0212C35.3644 23.9946 35.3547 23.9777 35.3498 23.968C35.3474 23.9583 35.345 23.9462 35.345 23.9317V23.2396C35.345 23.2154 35.3498 23.1984 35.3571 23.1863C35.36 23.1815 35.3632 23.1767 35.3667 23.1721C35.3699 23.1678 35.3733 23.1637 35.3768 23.1598C35.3791 23.1572 35.3814 23.1548 35.3837 23.1524L35.5798 22.9564C35.5991 22.9371 35.6136 22.9274 35.6282 22.9225C35.6427 22.9201 35.6572 22.9177 35.6693 22.9177H36.543C36.543 22.9177 36.5451 22.9177 36.5485 22.9179C36.5505 22.918 36.553 22.9182 36.5557 22.9184C36.5622 22.9191 36.5701 22.9203 36.5769 22.9225C36.5938 22.925 36.6108 22.9371 36.6326 22.9564L36.8286 23.1524C36.8479 23.1718 36.8576 23.1888 36.8625 23.2057C36.8634 23.2121 36.8643 23.218 36.8651 23.2229C36.8664 23.2308 36.8673 23.2366 36.8673 23.2396V23.9317C36.8673 23.9535 36.8625 23.9704 36.8552 23.9849C36.8479 23.9995 36.8383 24.0116 36.8286 24.0237L36.7245 24.164L36.8286 24.2995L36.8338 24.3059C36.8375 24.3103 36.8409 24.3145 36.844 24.3184C36.8492 24.3249 36.8538 24.3307 36.8576 24.3358C36.8649 24.3455 36.8673 24.36 36.8673 24.3794V25.0304C36.8673 25.0304 36.8673 25.033 36.8671 25.0371C36.8669 25.0399 36.8666 25.0434 36.8661 25.0472C36.8659 25.0492 36.8656 25.0513 36.8652 25.0534C36.8645 25.0571 36.8636 25.0608 36.8625 25.0643C36.8601 25.0812 36.8479 25.0982 36.8286 25.1175L36.6326 25.3136L36.6301 25.3111ZM11.7945 25.3015C11.7945 25.333 11.8115 25.3499 11.8429 25.3499V25.3475H12.1672C12.1794 25.3475 12.1915 25.3427 12.2011 25.333C12.2108 25.3257 12.2157 25.3136 12.2157 25.2991V22.9686C12.2157 22.9565 12.2132 22.9444 12.2011 22.9347C12.1971 22.9315 12.192 22.9288 12.187 22.9267C12.1853 22.926 12.1837 22.9253 12.182 22.9247C12.174 22.9217 12.1672 22.9202 12.1672 22.9202H11.7873C11.7655 22.9202 11.7486 22.9371 11.734 22.9662L11.5695 23.276C11.5598 23.2929 11.5574 23.3098 11.567 23.3219C11.5767 23.334 11.5985 23.3413 11.5985 23.3413H11.7945V25.3015ZM14.7181 25.311C14.6963 25.3328 14.6794 25.3425 14.6673 25.3449C14.6552 25.3473 14.6407 25.3473 14.6262 25.3473H13.7525C13.7186 25.3473 13.6871 25.3352 13.6629 25.3086L13.4669 25.1126C13.4499 25.0956 13.4403 25.0835 13.4354 25.0714C13.4306 25.0593 13.4282 25.0424 13.4282 25.023V24.66C13.4282 24.6455 13.433 24.6334 13.4427 24.6237C13.4524 24.614 13.4645 24.6092 13.4766 24.6092H13.8009C13.8154 24.6092 13.8275 24.614 13.8347 24.6237C13.8444 24.6334 13.8493 24.6455 13.8493 24.66V24.9214H14.435C14.435 24.9214 14.4543 24.919 14.4592 24.9117L14.5172 24.8536C14.5172 24.8536 14.5215 24.8472 14.5244 24.8401C14.5258 24.8365 14.5269 24.8327 14.5269 24.8294V24.4616C14.5269 24.4616 14.5245 24.4495 14.5172 24.4374L14.4688 24.389H13.7525C13.7525 24.389 13.7258 24.389 13.7113 24.3841C13.6944 24.3817 13.6799 24.3696 13.6629 24.3551L13.4669 24.1566C13.4475 24.1373 13.4378 24.1228 13.433 24.1107C13.4301 24.1035 13.429 24.0954 13.4285 24.0866C13.4282 24.0805 13.4282 24.074 13.4282 24.0671V23.2394C13.4282 23.2394 13.4282 23.2201 13.433 23.2055C13.4378 23.191 13.4475 23.1717 13.4669 23.1523L13.6629 22.9611C13.6799 22.9442 13.6944 22.9345 13.7065 22.9297C13.7186 22.9248 13.7355 22.9224 13.7525 22.9224H14.6504C14.6721 22.9224 14.6939 22.9345 14.7157 22.9563L14.9117 23.1523C14.9287 23.1692 14.9384 23.1838 14.9432 23.1983C14.948 23.2128 14.9505 23.2274 14.9505 23.2443V25.0254C14.9505 25.0617 14.9384 25.0932 14.9117 25.1198L14.7157 25.3158L14.7181 25.311ZM19.458 28.5662C19.6623 28.7709 19.8779 28.96 20.1033 29.1332L14.4515 34.8824L20.524 29.4303C21.5557 30.0986 22.7589 30.4563 24.0177 30.4563L24.0201 30.4587C25.2774 30.4587 26.4816 30.0996 27.514 29.4313L33.5853 34.8824L27.9347 29.1345C28.1602 28.9616 28.3757 28.7728 28.5798 28.5686C28.7848 28.3637 28.9731 28.1482 29.1446 27.924L34.8944 33.5732L29.4419 27.5011C30.8073 25.3823 30.807 22.632 29.4409 20.5135L34.8944 14.4404L29.1445 20.092C28.973 19.8679 28.7847 19.6524 28.5798 19.4475C28.3745 19.2423 28.1588 19.0538 27.9342 18.882L33.5853 13.1335L27.5127 18.5858C25.3938 17.2202 22.6433 17.2203 20.5245 18.5861L14.4515 13.1335L20.1031 18.8825C19.8787 19.0541 19.6631 19.2424 19.458 19.4475C19.2537 19.6514 19.0647 19.8667 18.8918 20.0919L13.1444 14.4404L18.5957 20.511C17.9262 21.5438 17.5678 22.7488 17.5678 24.0069C17.5678 25.2648 17.9275 26.4685 18.5966 27.5015L13.1444 33.5732L18.8936 27.9222C19.0661 28.1471 19.2545 28.3623 19.458 28.5662ZM21.5834 35.9085C21.5786 35.9376 21.5931 35.9545 21.6221 35.9594L21.6197 35.9569L21.915 36.0029C21.944 36.0077 21.9609 35.9932 21.9658 35.9642L22.0844 35.1874L22.7645 35.2914C22.7838 35.2963 22.8008 35.2963 22.8153 35.2914C22.8298 35.2866 22.8419 35.2817 22.854 35.2721L23.0621 35.1196C23.0888 35.1002 23.1057 35.0736 23.1105 35.0422L23.2364 34.2169V34.183C23.2364 34.1742 23.2344 34.1654 23.2305 34.1558C23.2291 34.1525 23.2274 34.1491 23.2256 34.1455C23.2226 34.1398 23.2189 34.1338 23.2146 34.1274L23.0621 33.9193C23.0476 33.9023 23.0355 33.8902 23.0234 33.8854L23.0174 33.8829C23.0126 33.8809 23.0075 33.8787 23.0022 33.877C22.9957 33.8748 22.989 33.8733 22.9823 33.8733L21.9609 33.7184C21.9319 33.7136 21.915 33.7281 21.9101 33.7571L21.5834 35.9085ZM23.7278 36.1867C23.7278 36.1867 23.706 36.1819 23.6964 36.1746C23.6927 36.1719 23.6897 36.1688 23.6875 36.1654C23.6862 36.1635 23.6852 36.1615 23.6843 36.1594C23.6827 36.1552 23.6818 36.1506 23.6818 36.1456L23.6867 35.7947C23.6867 35.7656 23.7036 35.7487 23.7327 35.7511L24.0303 35.7559C24.0618 35.7559 24.0763 35.7729 24.0739 35.8019L24.0691 36.1528C24.0691 36.1528 24.0642 36.1722 24.0545 36.1795C24.0499 36.1829 24.0453 36.1858 24.0404 36.1877C24.035 36.1897 24.0294 36.1904 24.0231 36.1891L23.7254 36.1843L23.7278 36.1867ZM25.4581 36.0828C25.463 36.1118 25.4823 36.1239 25.5114 36.119L25.5138 36.1239L25.809 36.0755C25.8405 36.0707 25.8526 36.0513 25.8478 36.0222L25.705 35.1414L26.3584 35.0349C26.3875 35.03 26.3996 35.0107 26.3947 34.9816L26.3463 34.6864C26.3415 34.6549 26.3221 34.6428 26.2931 34.6477L25.6396 34.7541L25.5525 34.2121L26.3851 34.0765C26.3903 34.0765 26.3948 34.0744 26.3987 34.0705C26.3996 34.0696 26.4005 34.0685 26.4014 34.0673C26.4035 34.0645 26.4053 34.0611 26.4068 34.0572C26.4085 34.053 26.4096 34.0479 26.4103 34.0431C26.4117 34.034 26.4117 34.0257 26.4117 34.0257L26.3633 33.7305C26.3584 33.699 26.3391 33.6869 26.31 33.6918L25.1459 33.8805C25.1144 33.8854 25.1023 33.9047 25.1072 33.9338L25.4581 36.0828ZM20.3519 14.8251C20.3301 14.8347 20.3132 14.8251 20.3011 14.796L19.9332 13.8474L18.8901 12.9737C18.878 12.9641 18.8756 12.952 18.8828 12.9375C18.8863 12.9306 18.8908 12.9247 18.896 12.92C18.9016 12.9148 18.908 12.9109 18.9143 12.9084L19.2265 12.7874C19.2386 12.7826 19.2507 12.7826 19.2652 12.7874C19.2694 12.7888 19.2734 12.7904 19.2772 12.7921C19.2805 12.7937 19.2836 12.7953 19.2866 12.797C19.2921 12.8001 19.2971 12.8034 19.3015 12.8068L19.9865 13.4311L20.0712 12.5091C20.0712 12.497 20.0784 12.4825 20.0857 12.4704C20.0929 12.4583 20.1026 12.4486 20.1147 12.4438L20.4269 12.3228C20.439 12.3179 20.4536 12.3179 20.4705 12.3228C20.4874 12.3276 20.4923 12.3397 20.4899 12.3542L20.3059 13.7022L20.6738 14.6508C20.6859 14.6799 20.6786 14.6992 20.6544 14.7089L20.3543 14.8251H20.3519ZM21.8573 14.3386C21.8694 14.3434 21.8912 14.3434 21.8912 14.3434L22.1889 14.2805C22.201 14.2781 22.2107 14.2733 22.2179 14.2636C22.2207 14.2608 22.2227 14.257 22.2241 14.2531C22.2248 14.2513 22.2253 14.2494 22.2257 14.2475C22.2276 14.2395 22.2276 14.2321 22.2276 14.2321L22.155 13.8837C22.1478 13.8522 22.1284 13.8401 22.0994 13.8473L21.8017 13.9103C21.7702 13.9175 21.7581 13.9369 21.7654 13.9659L21.838 14.3144C21.8393 14.3197 21.8414 14.325 21.8449 14.3295C21.8479 14.3333 21.8519 14.3364 21.8573 14.3386ZM24.3165 14.0967C24.3044 14.0967 24.2899 14.0918 24.2778 14.0821C24.2657 14.0724 24.2584 14.0628 24.2536 14.0507L23.6607 12.6277L23.6728 14.0555C23.6728 14.087 23.6582 14.1015 23.6268 14.1015H23.3218C23.2904 14.1039 23.2758 14.0894 23.2758 14.0579L23.2541 11.8436C23.2541 11.8121 23.2686 11.7976 23.3 11.7976L23.7042 11.7928C23.726 11.7928 23.7429 11.8073 23.755 11.8388L24.2802 13.1601L24.302 13.2521L24.2899 11.8339C24.2899 11.8025 24.3044 11.7879 24.3359 11.7879H24.6408C24.6723 11.7855 24.6868 11.8 24.6868 11.8315L24.7086 14.0458C24.7086 14.0773 24.6941 14.0918 24.6626 14.0918H24.319L24.3165 14.0967ZM25.7661 14.2297C25.7758 14.2394 25.7952 14.2466 25.7952 14.2466H25.7927L26.0904 14.3023C26.1025 14.3047 26.1146 14.3023 26.1243 14.2974C26.134 14.2926 26.1437 14.2733 26.1437 14.2733L26.2114 13.9223C26.2187 13.8933 26.2066 13.8739 26.1751 13.8691L25.8774 13.811C25.8484 13.8037 25.829 13.8159 25.8242 13.8473L25.7564 14.1982C25.754 14.2103 25.7589 14.22 25.7661 14.2297ZM27.2131 14.588C27.1841 14.5759 27.1768 14.5565 27.1865 14.5275L27.9997 12.4656C28.0118 12.4366 28.0312 12.4293 28.0602 12.439L29.1759 12.8794C29.205 12.8915 29.2122 12.9109 29.2025 12.9399L29.0912 13.2231C29.0912 13.2231 29.0791 13.2424 29.067 13.2473C29.0549 13.2521 29.0428 13.2545 29.0307 13.2473L28.2393 12.9351L28.0336 13.4554L28.658 13.7023C28.658 13.7023 28.6641 13.7061 28.6704 13.7116C28.6752 13.7159 28.6801 13.7212 28.6822 13.7264C28.687 13.7385 28.6894 13.7506 28.6822 13.7628L28.5709 14.0459C28.566 14.058 28.5563 14.0677 28.5442 14.0701C28.5321 14.0749 28.52 14.0749 28.5104 14.0701L27.8859 13.8233L27.6802 14.3436L28.4716 14.6557C28.5007 14.6678 28.5079 14.6872 28.4983 14.7162L28.3869 14.9994C28.3748 15.0284 28.3555 15.0357 28.3264 15.026L27.2107 14.5856L27.2131 14.588Z" fill="white"/>
</svg>
